<?xml version="1.0" encoding="UTF-8"?>
<svg width="1024px" height="1024px" viewBox="0 0 1024 1024" version="1.1" xmlns="http://www.w3.org/2000/svg" xmlns:xlink="http://www.w3.org/1999/xlink">
    <!-- Generator: Sketch 53.2 (72643) - https://sketchapp.com -->
    <title>Group</title>
    <desc>Created with Sketch.</desc>
    <defs>
        <linearGradient x1="0%" y1="50%" x2="100%" y2="50%" id="linearGradient-1">
            <stop stop-color="#CC2B5E" offset="0%"></stop>
            <stop stop-color="#F06723" offset="100%"></stop>
        </linearGradient>
        <linearGradient x1="0%" y1="50%" x2="100%" y2="50%" id="linearGradient-2">
            <stop stop-color="#CC2B5E" offset="0%"></stop>
            <stop stop-color="#F06723" offset="100%"></stop>
        </linearGradient>
    </defs>
    <g id="Symbols" stroke="none" stroke-width="1" fill="none" fill-rule="evenodd">
        <g id="Logo-Solid">
            <g id="Group">
                <circle id="Oval" fill="#FFFFFF" cx="512" cy="512" r="512"></circle>
                <g id="logo" transform="translate(192.000000, 200.000000)">
                    <path d="M447.775542,537.918888 C447.760812,537.804439 447.747169,537.689765 447.734703,537.574781 C447.69908,537.534741 447.664208,537.49415 447.630101,537.453027 C447.676975,537.608737 447.725458,537.764031 447.775542,537.918888 Z M497.267078,320.413715 C497.247952,320.395837 497.228827,320.377959 497.209704,320.360081 C496.972679,319.810531 496.745134,319.260981 496.536552,318.693703 C496.298671,318.015607 496.099292,317.326231 495.939248,316.628459 C495.58845,315.201401 495.275577,313.774344 495.048032,312.320695 C494.924779,311.319096 494.83945,310.308633 494.773083,309.29817 C494.773083,309.182942 494.773083,309.076577 494.773083,308.970213 C494.829969,308.323162 494.896336,307.684975 494.972184,307.046788 L494.972184,306.922696 C495.161805,305.983142 495.389349,305.025862 495.635855,304.139491 C495.711704,303.829261 495.787552,303.510167 495.872881,303.253119 C495.95821,302.996072 496.043539,302.739024 496.138349,302.473113 C496.42278,301.657652 496.70721,300.833326 496.98216,300.009001 L497.048527,299.849455 C497.336613,299.238655 497.64703,298.635683 497.970691,298.039125 L497.777778,297.828549 C498.070307,297.296839 498.362837,296.76513 498.664803,296.242282 C499.220027,295.311762 499.851002,294.422932 500.552092,293.583735 C501.089969,292.972269 501.646719,292.334217 502.165723,291.758199 C502.684728,291.18218 503.203732,290.579576 503.751046,289.985834 L503.769918,289.835183 C504.535032,288.994265 505.347739,288.19259 506.20452,287.433628 L506.546097,287.77492 C506.932743,287.455344 507.329404,287.145626 507.735637,286.846165 L507.754898,286.811062 L508.294201,286.442478 L508.40209,286.521676 C508.809607,286.239546 509.222301,285.961751 509.638255,285.690099 C510.456062,285.137552 511.303095,284.624431 512.176089,284.152713 L512.751583,283.868341 C513.798793,283.503989 514.846004,283.175184 515.921517,282.890812 C517.447993,282.455429 519.001255,282.108206 520.572641,281.851077 C521.214176,281.762211 521.836841,281.646685 522.459507,281.540045 L522.55385,281.540045 C522.901495,281.615628 523.26285,281.615628 523.610495,281.540045 C524.176555,281.495612 524.752049,281.495612 525.318108,281.495612 L526.440793,281.486726 L527.384226,281.486726 C528.205573,281.523862 529.022344,281.591172 529.834538,281.673647 L529.634718,281.486726 L531.272703,281.66406 C532.044627,281.77046 532.825965,281.903461 533.597889,282.045328 C534.434286,282.181258 535.256424,282.385975 536.054866,282.657131 C536.718842,282.917312 537.366325,283.213361 537.99409,283.543801 C538.332983,283.712269 538.65305,283.89847 538.935461,284.066937 C539.217872,284.235404 539.528524,284.359538 539.829763,284.510272 L540.629928,284.882674 L563.87237,306.579503 L578.680131,320.349496 C593.986819,334.536225 607.975587,347.63235 621.456016,360.249672 L622.933968,361.553077 L624.374265,362.909683 L625.93694,364.381556 L626.096973,364.53229 C626.379385,364.807158 626.652382,365.064293 626.906552,365.348027 C627.129702,365.550421 627.314374,365.787341 627.452547,366.048497 C628.328022,366.837634 629.156428,367.617904 630.276659,368.708509 C631.326979,369.791822 632.301766,370.938022 633.194908,372.139924 C634.174218,373.434614 635.052019,374.794825 635.821333,376.209742 C637.454009,379.142188 638.630222,382.280648 639.313818,385.528649 C640.003044,388.967575 640.174174,392.480841 639.822158,395.964762 C639.10045,402.656963 636.852671,409.123397 633.232563,414.921778 C631.598645,417.508427 629.707399,419.942941 627.584339,422.192477 L627.396065,422.449611 C627.305322,422.686402 627.191889,422.914923 627.057171,423.132348 C626.978406,423.276187 626.89038,423.415359 626.793588,423.549083 C626.661796,423.753017 626.511176,423.948085 626.360557,424.143152 L626.219352,424.320486 C625.965181,424.657421 625.68277,424.976623 625.409773,425.295824 L625.136775,425.606159 C624.994877,425.992482 624.736429,426.331436 624.393092,426.581496 L624.327196,426.65243 L624.204818,426.820897 L624.035371,427.078032 C623.922407,427.237633 623.847097,427.3529 623.762374,427.4593 C623.666934,427.609825 623.549706,427.747099 623.414067,427.867169 C623.264814,428.006095 623.089184,428.11738 622.896313,428.195237 C622.602024,428.522561 622.287699,428.833424 621.954942,429.126241 L621.456016,429.605043 C621.117122,429.933111 620.787643,430.270046 620.458163,430.606981 L620.345198,430.731115 L619.46031,431.617785 C618.217701,432.84139 616.852713,434.127063 615.751309,435.164467 L615.515967,435.395002 L615.327693,435.572336 L615.064109,435.811737 L613.906223,436.911208 L608.860476,441.654896 L607.824968,442.630233 L601.564853,448.544326 L601.470716,448.632993 L598.552467,451.399405 L592.659486,456.98543 L589.750651,459.742975 L576.948009,471.890362 C566.423485,481.847672 555.127037,492.354719 546.890043,500.024419 L546.55115,500.34362 L545.609779,501.230291 C539.10177,507.277384 532.612588,513.333344 526.142233,519.398171 L522.37675,522.944853 C518.422993,526.662958 514.453547,530.375152 510.468411,534.081435 L506.702928,537.628117 L502.937445,541.1748 L499.040171,544.774682 L497.157429,546.47709 L496.856191,546.751957 C496.293387,547.309196 495.661235,547.800417 494.973449,548.214964 C494.835062,548.299205 494.68654,548.367663 494.531005,548.418898 L494.333317,548.622832 L490.944383,551.841446 L489.005159,553.676855 L488.911022,553.765522 C488.732162,553.978323 488.562715,554.14679 488.393268,554.315257 L488.082616,554.625592 C487.856687,554.856126 487.602517,555.095527 487.404829,555.255128 C487.207141,555.414729 487.028281,555.538863 486.840006,555.671863 C486.425136,555.907728 485.950188,556.033354 485.465605,556.035398 C485.236678,556.034652 485.014434,556.00729 484.802174,555.956429 C483.652392,556.794404 482.411189,557.516446 481.099154,558.110446 L480.567045,558.329017 C478.903746,558.992569 477.155649,559.448806 475.367553,559.686736 C475.073067,559.733223 474.777352,559.774189 474.480604,559.80959 C474.267399,559.847021 474.052413,559.875185 473.836337,559.89398 C473.616673,559.918724 473.395828,559.933003 473.174654,559.936765 C472.541239,559.981867 471.906094,560.002848 471.270981,559.99969 C470.647604,560.002826 470.024124,559.982161 469.402097,559.937694 C467.266883,559.765311 465.166216,559.3242 463.156821,558.626272 C459.540251,557.353127 456.267101,555.3503 453.569529,552.759846 C452.123668,551.359743 450.814616,549.84117 449.658063,548.222326 C448.609916,546.762304 447.674029,545.234281 446.85749,543.649836 C446.624109,543.203953 446.409399,542.775555 446.213359,542.303443 C446.213359,542.4171 446.316047,542.539499 446.372058,542.653155 C444.793952,539.505453 443.890059,536.098538 443.711514,532.62515 L443.711514,532.459037 C443.679688,531.682898 443.689523,530.906134 443.740863,530.131674 C443.632348,529.152023 443.709529,528.159864 443.971103,527.20181 C444.095531,526.730948 444.253173,526.268404 444.442981,525.817249 C444.584544,525.444483 444.726107,525.071717 444.886546,524.707826 L444.971484,524.228555 C445.234627,523.14154 445.64705,522.091345 446.198366,521.104418 C446.641931,520.216879 447.142122,519.32934 447.65175,518.495054 C448.119859,517.643326 448.662835,516.829877 449.27501,516.063197 C449.756325,515.450795 450.218765,514.847269 450.775581,514.28812 C453.37472,510.58307 456.435308,507.183365 459.89226,504.161301 L460.373576,503.761909 C460.751078,503.362516 461.138018,502.963124 461.543833,502.581482 C462.304353,501.866264 463.091144,501.170811 463.888525,500.48775 C464.070768,500.292823 464.266017,500.108645 464.47317,499.936348 L464.813741,499.626498 L467.453165,497.1654 L473.129345,491.853679 L473.29963,491.703181 L484.33034,481.416148 L484.415483,481.345325 L487.253573,478.689464 L487.310334,478.636347 L487.423858,478.538966 C494.071295,472.377369 500.693505,466.215773 507.290488,460.054177 L516.19263,451.635099 L520.374082,447.730984 L523.912235,444.428864 L530.827714,437.96627 C534.687516,434.38381 538.550472,430.798398 542.416581,427.210035 L543.570738,426.129986 L545.027624,424.793202 C548.017079,422.031108 550.990766,419.269013 553.948687,416.506918 C557.15629,413.533322 560.355345,410.543726 563.54585,407.538129 C563.728175,407.191148 563.905724,406.841922 564.078449,406.490537 C564.626646,405.472825 565.203198,404.472813 565.751395,403.4551 C565.885636,403.223789 566.024595,402.995042 566.168184,402.768981 C566.229784,402.582299 566.29276,402.393641 566.3606,402.209536 C566.729083,401.132926 566.995009,400.027907 567.155265,398.907416 C567.316091,397.597191 567.429614,396.402054 567.429614,395.242328 C567.429614,394.604922 567.429614,393.949809 567.429614,393.30355 L567.429614,393.232727 L567.278249,392.683849 C567.107964,392.108413 566.899837,391.550682 566.691711,391.01951 L566.625489,390.869011 L566.464664,390.435221 C566.313299,390.027989 566.152474,389.62961 565.991649,389.222378 C565.401858,388.022572 564.675522,386.885784 563.82524,385.831729 L563.636034,385.601555 C563.371146,385.291704 563.134638,384.990707 562.841369,384.672004 C562.548099,384.3533 562.226449,384.04345 561.961561,383.786717 L561.848037,383.680482 L561.677752,383.529984 C561.41917,383.282103 561.154282,383.043076 560.883087,382.812901 C560.483142,382.482772 560.101099,382.134123 559.73839,381.768263 L559.539724,381.5735 L559.284296,381.334472 L559.151852,381.210532 L559.028868,381.086592 L558.972106,381.033475 L558.905884,380.980357 L556.843539,379.032726 L551.999865,374.438088 L548.111682,370.755295 L545.188449,367.975494 L541.347567,364.354671 L536.617417,359.928237 C531.313343,354.947023 526.018728,349.959907 520.733574,344.966889 C515.328589,339.826324 509.929911,334.709366 504.53754,329.616016 L502.64548,327.845442 C501.850815,327.092948 501.05615,326.349308 500.270945,325.596814 C499.523581,324.525617 498.83298,323.410155 498.123457,322.3124 C497.88695,321.763522 497.640982,321.29432 497.366633,320.64806 C497.333426,320.569836 497.300218,320.491742 497.267078,320.413715 Z M533.892995,285.470127 C534.206876,285.842047 534.52855,286.217916 534.809043,286.605421 C535.583882,287.235439 536.357306,287.865457 537.128765,288.497025 L533.892995,285.470127 Z M629.218616,377.852599 C629.231599,377.923834 629.244096,377.995156 629.256104,378.066563 C629.39527,378.265815 629.532793,378.466614 629.668433,378.668503 C629.522647,378.394453 629.372691,378.122457 629.218616,377.852599 Z M446.749751,532.912449 C446.799891,532.775388 446.85838,532.640775 446.925058,532.509292 C446.863263,532.53763 446.800372,532.562876 446.736629,532.585041 C446.73809,532.694111 446.742716,532.803208 446.749751,532.912449 Z M455.600457,99.1150442 L457.630937,99.150563 C458.735897,99.150563 459.831412,99.2038411 460.775821,99.2038411 L462.929075,99.3103973 L517.799274,99.3103973 C517.949105,99.3049561 518.097203,99.3420888 518.224258,99.4169535 C519.272553,99.3370364 520.320847,99.3370364 521.378586,99.3370364 C522.842421,99.2926379 524.3157,99.2926379 525.779535,99.2926379 L526.242295,99.2926379 C526.601171,99.2926379 526.969491,99.3370364 527.385031,99.3370364 L527.819459,99.3370364 L529.122745,99.2748786 C529.566617,99.2748786 529.934937,99.2748786 530.444918,99.2748786 C530.954899,99.2748786 531.530989,99.2926379 532.163744,99.3370364 C533.344256,99.4258332 534.401994,99.5146301 535.469177,99.6655847 C536.53636,99.8165394 537.575211,100.011892 538.642394,100.216125 C539.152375,100.322681 539.662356,100.455877 540.172337,100.580192 L540.625654,100.695628 L540.805092,100.695628 C541.097859,100.766666 541.428402,100.855463 541.692837,100.9265 C541.957271,100.997537 542.240594,101.077455 542.505029,101.166251 L543.147227,101.352725 L543.251113,101.352725 L543.524991,101.423762 L543.676097,101.423762 C545.474012,101.764639 547.249346,102.203443 548.993123,102.737956 C551.174857,103.399907 553.289302,104.243875 555.311223,105.259786 C556.349892,105.74896 557.350331,106.306822 558.305002,106.929167 C559.326945,107.565695 560.304808,108.262677 561.232672,109.015893 C564.620041,111.887447 567.331794,115.392892 569.194045,119.307448 C570.154588,121.263788 570.928883,123.296304 571.507848,125.381153 C572.077183,127.380048 572.506239,129.411951 572.792245,131.463737 L572.867798,132.067555 L572.867798,132.236269 C572.971683,132.751291 573.066124,133.266313 573.151121,133.790214 L573.151121,134.003327 L573.151121,134.19868 L573.151121,134.394033 L573.245562,134.988972 C573.349447,135.583911 573.443888,136.17885 573.528885,136.764909 C573.661102,137.608479 573.755543,138.452049 573.859428,139.295619 C573.982201,140.325662 574.076642,141.364586 574.161639,142.403509 L574.20886,142.989568 L574.20886,143.273718 L574.20886,143.433552 C574.25608,143.611146 574.25608,143.77986 574.25608,143.948574 L574.359965,145.058535 L574.359965,145.316045 L574.359965,145.413722 C574.46385,146.399367 574.567735,147.491568 574.633844,148.548251 C574.737729,150.155474 574.83217,151.762697 574.898279,153.36992 C574.898279,153.671829 574.898279,153.964859 574.898279,154.257888 L574.898279,158.013995 C574.898279,158.742129 574.898279,159.470263 574.898279,160.198398 L574.898279,161.601388 C574.898279,161.725703 574.898279,161.850019 574.898279,161.983214 L574.898279,162.285124 C574.895246,162.40528 574.876209,162.524606 574.841614,162.640311 C574.822306,162.723221 574.779939,162.799826 574.718841,162.862303 C574.678391,162.904713 574.626005,162.935497 574.567735,162.9511 C574.633844,166.165546 574.633844,169.379992 574.633844,172.594438 L574.633844,177.806813 C574.633844,180.515117 574.633844,183.179022 574.633844,185.842928 L574.633844,186.06492 C574.633844,189.243847 574.633844,192.431654 574.633844,195.601702 L574.633844,207.900065 C574.633844,209.436251 574.633844,210.963557 574.633844,212.490863 L574.633844,223.031049 C574.633844,224.735948 574.633844,226.511885 574.633844,228.287822 C574.633844,228.323341 574.633844,228.367739 574.633844,228.412138 L574.633844,229.237949 L574.633844,229.48658 L574.784949,229.566497 L574.67162,230.03712 L574.67162,230.134797 L574.614956,230.383428 C574.520515,230.818533 574.41663,231.262517 574.284412,231.706501 C574.227748,231.892974 574.161639,232.079448 574.09553,232.265921 L573.982201,232.621109 L573.982201,232.754304 C573.944425,232.86086 573.878316,232.976296 573.878316,233.091732 C571.609845,236.356392 568.656524,239.151341 565.199192,241.305441 C563.394004,242.432986 561.469793,243.382228 559.457181,244.13806 C558.487943,244.536218 557.49083,244.871471 556.472847,245.141464 C555.39622,245.452253 554.225152,245.718644 553.006864,245.949516 C550.805389,246.31659 548.575083,246.509658 546.339332,246.526695 L546.037121,246.526695 C543.6402,246.499887 541.249446,246.292025 538.88794,245.905117 C536.548428,245.503308 534.250979,244.909045 532.022082,244.12918 C530.859414,243.747042 529.721094,243.302323 528.612764,242.797228 C528.083894,242.566356 527.555025,242.326604 527.0356,242.060214 L526.686168,241.8915 L526.346181,241.713906 L526.100634,241.58959 C526.02049,241.552505 525.944549,241.507878 525.873976,241.456395 L525.751202,241.385358 L525.618985,241.31432 L525.184557,241.065689 C524.863457,240.879216 524.542358,240.692742 524.240147,240.48851 C523.57906,240.115563 522.984082,239.715977 522.351328,239.271993 C521.22748,238.446182 520.075301,237.531574 518.923121,236.53705 C517.373003,235.170763 515.918711,233.711435 514.569393,232.168245 C514.503284,232.097207 514.503284,232.00841 514.503284,231.928493 C514.419649,231.689723 514.321908,231.455528 514.210517,231.226998 L514.087744,230.978367 L513.785533,230.347909 C513.584059,229.844727 513.395177,229.329705 513.218887,228.802844 L513.067781,228.376619 C512.886067,227.922793 512.740849,227.45678 512.633353,226.982509 C512.595577,226.716118 512.576688,226.449728 512.576688,226.183337 C512.577072,226.054184 512.557994,225.925631 512.520024,225.80151 L512.520024,225.428564 L512.576688,218.680003 L512.576688,217.197096 L512.576688,212.268871 L512.576688,209.702642 L512.576688,208.441726 L512.576688,205.555829 L512.576688,203.282629 L512.576688,201.044949 L512.576688,198.74511 C512.661685,191.454889 512.71835,183.054707 512.71835,173.695519 L512.71835,173.429128 L512.71835,173.322572 L512.642797,173.082821 L512.567244,172.843069 C512.425315,172.375142 512.352231,171.891139 512.35003,171.40456 L512.35003,171.155929 L512.35003,170.525471 L512.35003,170.392276 C512.265033,170.054848 512.198925,169.788457 512.057263,169.379992 C511.915602,168.971526 511.77394,168.571941 511.603946,168.172355 L511.273403,167.373183 L511.141186,167.071274 C511.046745,166.858161 510.94286,166.645049 510.848419,166.467455 L510.650093,166.218824 L510.583984,166.138907 C510.234553,165.721562 509.866233,165.330855 509.479025,164.91351 L508.534615,163.883467 L508.364622,163.705873 C507.986858,163.315167 507.590206,162.933341 507.193554,162.551514 C507.051892,162.418319 506.900787,162.294003 506.749681,162.169688 L506.617464,162.072011 C506.40025,161.885538 506.173591,161.707944 505.946933,161.53923 L505.814716,161.450433 L505.701386,161.361636 L504.756977,160.70454 L504.313104,160.42039 L504.171443,160.313833 L503.803123,160.038563 L503.142036,159.630098 L503.028707,159.55906 L502.849269,159.443624 C502.518726,159.239392 502.178739,159.026279 501.829307,158.839806 C501.630981,158.73325 501.423211,158.635573 501.187108,158.529017 L500.96045,158.413581 L500.733792,158.315904 C500.497689,158.200468 500.252143,158.076153 500.006596,157.969597 L499.912156,157.969597 C499.713829,157.907439 499.430507,157.836401 499.260513,157.809762 C499.090519,157.783123 498.920525,157.738725 498.684423,157.685447 L498.56165,157.685447 L498.334991,157.641048 L498.183886,157.641048 L495.907859,157.641048 L494.585685,157.641048 L452.257247,157.641048 C448.564605,157.747604 444.900296,157.845281 441.009328,157.845281 L440.064919,157.845281 C437.27891,157.836401 434.332352,157.738725 431.612453,157.641048 L286.475584,157.641048 L285.370624,157.641048 L285.049525,157.641048 C284.256221,157.676567 283.066265,157.729845 281.989638,157.729845 L281.55521,157.729845 C279.723055,157.703206 277.900344,157.667687 276.06819,157.614409 L274.50047,157.570011 L266.000783,157.570011 C245.45043,157.570011 225.145624,157.534492 198.135509,157.481214 L185.055436,157.481214 L184.233799,157.481214 L165.761147,157.427936 L143.000876,157.427936 C141.149833,157.60553 139.006023,157.827522 136.257791,158.14719 C134.028984,158.404701 131.82851,158.653332 129.646924,158.875324 L129.533595,158.99076 L129.306936,159.194993 L129.089722,159.345948 L128.995281,159.416985 C128.949731,159.454162 128.90857,159.49584 128.872508,159.541301 L128.825287,159.594579 L128.768623,159.665616 C128.655996,159.776136 128.536137,159.879935 128.409747,159.976405 L128.230309,160.091841 L128.135868,160.153999 L128.041427,160.216157 L127.956431,160.269435 L127.843101,160.358232 C127.654244,160.514724 127.474543,160.680721 127.304788,160.855494 L127.191459,160.97981 C127.040353,161.130764 126.889248,161.272839 126.747586,161.423794 L126.492596,161.663546 L126.332046,161.83226 L126.114832,162.045372 L125.992059,162.160808 C125.71818,162.515995 125.463189,162.871183 125.160978,163.297408 L124.471559,164.318571 L124.273233,164.620481 L124.169348,164.842473 L124.065463,165.037826 L124.065463,165.162141 L124.065463,165.277577 C124.027687,165.393013 123.971022,165.508449 123.971022,165.632765 L123.971022,165.721562 L123.971022,165.845877 C123.935803,166.001913 123.891667,166.156051 123.838805,166.307621 C123.725475,166.680568 123.593258,167.035755 123.451597,167.399822 C123.385488,167.577416 123.319379,167.755009 123.262715,167.941483 L123.20605,168.136836 C123.165855,168.240945 123.134281,168.347819 123.111609,168.456505 C123.020059,168.804089 122.953797,169.157134 122.913283,169.513187 C122.83773,169.735179 122.83773,169.957171 122.83773,170.179164 L122.83773,170.401156 C122.824347,170.597834 122.783057,170.791946 122.714957,170.978335 L122.592184,171.333523 L122.592184,171.41344 C122.520967,171.576737 122.467186,171.746284 122.431634,171.919582 L122.346637,172.700994 L122.176644,174.334856 C122.148311,174.539089 122.101091,174.743322 122.101091,174.956434 L122.101091,175.089629 L122.101091,175.213945 L122.101091,175.329381 C122.101091,175.728967 122.101091,176.19071 122.101091,176.616935 C122.101091,176.803409 121.978318,176.989882 121.855544,176.989882 L121.855544,200.72528 C122.061005,202.553874 122.155599,204.391982 122.138867,206.230685 L122.138867,206.905541 C122.148311,208.237494 122.101091,209.507288 122.044426,210.981316 L122.044426,211.15891 L121.987762,212.455344 C121.987762,213.014764 121.987762,213.574184 121.987762,214.142484 C121.968874,215.030453 121.95943,215.918421 121.893321,216.80639 L121.893321,226.041262 C122.186381,227.082991 122.186381,228.17846 121.893321,229.220189 L121.893321,231.280276 C121.89391,231.415576 121.861607,231.549213 121.79888,231.670982 L121.79888,231.955132 C121.785063,232.219765 121.756693,232.483548 121.713883,232.745424 C121.671671,232.982146 121.614912,233.21637 121.543889,233.446919 C121.465092,233.685725 121.36396,233.917502 121.241678,234.139535 C121.206954,234.218122 121.162581,234.292625 121.109461,234.361527 L121.01502,234.494722 L120.769473,234.805511 L120.656144,234.920947 C120.669829,235.037087 120.646836,235.154444 120.590036,235.258375 C120.574997,235.361247 120.532788,235.458937 120.467262,235.542525 L120.23116,235.871073 C120.051722,236.101945 119.86284,236.323937 119.683402,236.545929 L119.522853,236.732403 L119.418968,236.901117 L119.418968,236.972154 C119.396939,237.019585 119.350603,237.053098 119.296194,237.060951 L118.833434,237.584853 C118.172347,238.286348 117.530148,238.916805 116.878506,239.493985 C115.38308,240.822859 113.754234,242.012374 112.014796,243.045859 C110.303688,244.048193 108.498639,244.901238 106.622217,245.594328 C104.6961,246.324035 102.696343,246.868473 100.653549,247.219311 C98.4535702,247.595733 96.2221254,247.785928 93.9860169,247.787611 L93.3721506,247.787611 C88.5885784,247.721545 83.8532774,246.877349 79.3760002,245.292419 C78.2615969,244.892833 77.1660817,244.466608 76.117787,244.004865 C75.5889177,243.773993 75.0694924,243.525362 74.5500671,243.267851 L74.3706293,243.179054 L73.851204,242.912664 L73.6245457,242.806107 C73.5844175,242.790506 73.5488099,242.766157 73.5206606,242.73507 C71.8097065,241.808926 70.1829504,240.751616 68.6569511,239.573902 C67.2447313,238.428412 65.9104834,237.200595 64.6620985,235.897712 C64.6016711,235.794749 64.5321711,235.69673 64.4543284,235.604683 L64.4543284,235.551405 L64.2182259,235.1163 C64.0010117,234.725594 63.7743534,234.334888 63.5665833,233.944182 L63.4721424,233.535716 C63.4623285,233.414536 63.4623285,233.292829 63.4721424,233.171649 C63.4614567,233.09502 63.4614567,233.017407 63.4721424,232.940777 C63.2789429,232.717811 63.1753065,232.438056 63.1793754,232.150485 C63.1793754,231.670982 63.1793754,231.235878 63.1793754,230.783014 L63.1793754,229.859527 L63.1227108,229.149152 C63.1133128,228.998326 63.1133128,228.847113 63.1227108,228.696288 L63.1227108,228.527574 C63.0905518,228.36917 63.0905518,228.206475 63.1227108,228.048071 L63.1227108,227.817199 C63.1227108,226.582923 63.1227108,225.339767 63.1227108,224.078852 L63.1227108,223.00441 L63.1227108,219.115108 C63.1699313,216.948465 63.1699313,214.772942 63.1699313,212.606299 C63.239188,207.580397 63.2738163,202.548575 63.2738163,197.510834 L63.2738163,194.989003 L63.2738163,193.559374 L63.2738163,191.1441 L63.2738163,189.323764 L63.2738163,188.995216 C63.3115927,186.562182 63.3304809,184.132109 63.3304809,181.704995 L63.3304809,181.340928 L63.4154778,168.278911 L63.4154778,165.686043 C63.4154778,163.332926 63.4154778,160.96205 63.4154778,158.582295 L63.4154778,149.587174 C63.4111874,149.55177 63.4111874,149.516022 63.4154778,149.480618 L63.4154778,149.400701 C63.4013216,149.178908 63.4013216,148.956517 63.4154778,148.734724 C63.4532542,148.406176 63.5004746,148.059868 63.5760274,147.651403 L63.5760274,147.571485 C63.6043597,146.58584 63.6421361,145.600195 63.6988007,144.62343 C63.6469393,142.895987 63.7068625,141.167176 63.8782385,139.446574 C63.8929814,139.032424 63.9403314,138.61987 64.0198999,138.212297 L64.0198999,138.016944 L64.0198999,137.85711 C64.0387881,137.715035 64.0860086,137.58184 64.0860086,137.439765 C64.3576384,135.762401 64.7360825,134.101875 65.2193001,132.467141 C65.8520571,130.28943 66.686321,128.16797 67.7125415,126.127046 C69.7281688,121.892368 72.4936399,118.010087 75.8911287,114.645613 C79.1666835,111.491212 82.910762,108.799379 87.0068298,106.653897 C88.0267922,106.103356 89.0278664,105.614974 90.0478288,105.15323 L91.5777724,104.487254 L91.8138748,104.389577 L92.3521882,104.167585 L92.6638434,104.043269 C92.8223903,103.969734 92.986542,103.907404 93.1549364,103.856796 L93.5704766,103.696962 L93.6743617,103.696962 L93.7876908,103.625924 C93.995461,103.501609 94.2032311,103.368413 94.4110012,103.252977 C94.867268,102.947951 95.3507152,102.680565 95.8559479,102.453806 L96.4225937,102.187415 L97.536997,101.921025 L98.6514003,101.654634 L98.7552854,101.654634 L98.8780586,101.654634 L99.2652666,101.565837 C100.049127,101.379364 100.842431,101.192891 101.626291,101.024177 L102.825691,100.757786 L103.052349,100.704508 L103.892874,100.509155 C104.591737,100.3582 105.318932,100.242764 105.989463,100.145088 C107.415522,99.9852534 108.614922,99.825419 109.767101,99.6389457 C110.267639,99.5590285 110.758732,99.4524723 111.325377,99.3281567 L111.476483,99.3281567 C116.746288,99.3281567 122.02239,99.3281567 127.304788,99.3281567 L129.344713,99.3281567 L130.506336,99.3281567 L134.283975,99.3281567 L142.783661,99.3281567 L179.332313,99.2659989 L179.615636,99.2659989 L198.399943,99.2659989 L199.259356,99.2659989 L218.034219,99.2659989 L233.465872,99.2659989 L256.245032,99.2659989 L287.268888,99.2659989 L373.125165,99.2659989 L446.581345,99.2659989 C449.140695,99.1683224 451.652824,99.1150442 454.920482,99.1150442 L455.600457,99.1150442 Z M119.65507,178.952292 L119.673958,178.952292 C119.730623,179.245322 119.787287,179.547231 119.834508,179.840261 L119.834508,177.868971 C119.777843,178.233038 119.711735,178.597105 119.65507,178.952292 Z M514.012191,229.007077 L513.974415,229.007077 C514.122485,229.046735 514.256319,229.123464 514.361623,229.229069 L514.106632,228.651889 L514.106632,228.563093 L514.106632,228.758446 L514.012191,229.007077 Z M121.392784,232.159365 L121.421116,232.150485 C121.39087,232.173049 121.355199,232.188293 121.317231,232.194884 L121.317231,232.274801 L121.317231,232.665507 L121.317231,232.416876 C121.321329,232.326764 121.347165,232.238707 121.392784,232.159365 Z M464.296843,229.956976 L464.117487,230.178805 C464.226771,230.180707 464.335064,230.198671 464.438439,230.232044 C465.108662,230.187678 465.807205,230.187678 466.515187,230.187678 C467.657398,230.187678 468.884567,230.240917 470.158935,230.338521 C471.631538,230.471619 472.915345,230.631335 474.085876,230.835418 L474.387948,230.888657 L474.510665,230.888657 C475.313045,231.030627 476.219262,231.199217 477.07828,231.394426 C477.168444,231.394809 477.257861,231.409818 477.342594,231.438792 C478.404539,231.717413 479.447903,232.05519 480.467155,232.450331 C483.342749,233.488537 486.042448,234.914286 488.481513,236.682823 C489.123417,237.17972 489.76532,237.720982 490.444983,238.333229 L490.529941,238.404214 L490.57714,238.457453 C491.407396,239.238841 492.177127,240.07505 492.880442,240.959681 C492.996112,241.032086 493.098191,241.122041 493.182514,241.225876 C493.239902,241.259285 493.293653,241.297921 493.34299,241.341227 C493.427948,241.447704 493.522346,241.563055 493.607303,241.68728 L493.701701,241.80263 L493.701701,241.873616 L493.984894,242.255161 C494.230328,242.592341 494.466322,242.938394 494.702316,243.284446 C495.200728,244.01833 495.651512,244.779851 496.052202,245.564846 C496.633346,246.667428 497.150153,247.798952 497.600323,248.954389 C497.836317,249.335934 498.062871,249.71748 498.298865,250.143391 L498.298865,250.36522 L498.298865,250.480571 L498.298865,250.658034 L498.355504,250.84437 C498.907767,252.555106 499.32426,254.301994 499.601552,256.070655 C499.667631,256.496566 499.724269,256.886985 499.780908,257.26853 C499.724269,257.454866 499.724269,257.641202 499.724269,257.792046 C499.582673,258.759219 499.422197,259.912728 499.30892,261.119477 L499.30892,261.27032 L499.30892,261.385671 L499.30892,261.492149 C499.223962,261.989045 499.157883,262.485942 499.110685,263.009458 L499.025727,263.284525 L499.025727,263.38213 L498.770853,264.269445 C498.563178,264.997043 498.327184,265.884358 498.176148,266.771673 L498.09119,266.975755 L497.987353,267.206457 L497.883516,267.419413 L497.543684,268.155884 L497.128335,268.670527 C496.9301,268.936721 496.722425,269.194043 496.51475,269.451364 C496.307075,269.708685 496.071081,270.036992 495.920045,270.258821 C495.769009,270.480649 495.617973,270.702478 495.448057,270.915434 L495.32534,271.057404 L495.079906,271.359091 C494.862792,271.598666 494.645677,271.847114 494.419123,272.086689 L493.937695,272.619078 L493.390189,273.195833 C493.066426,273.510433 492.769717,273.848673 492.502851,274.207372 C492.393384,274.36814 492.313597,274.545136 492.266857,274.730888 L491.983664,275.059195 L490.680977,276.25707 C490.105152,276.940302 489.557646,277.534803 489.0007,278.084939 L488.377675,278.697186 L488.141681,278.981127 C488.016808,279.114819 487.884464,279.242181 487.745211,279.362672 L487.584735,279.513516 L487.188265,279.877315 L487.046669,280.019285 L486.754036,280.303226 C485.149277,281.900393 483.138608,283.896851 481.090179,285.777959 C480.117884,286.665274 479.107829,287.552589 477.975058,288.439904 L462.82424,302.486099 L445.285163,318.750582 L427.868802,334.899714 L414.247226,347.526206 L413.879075,347.872259 L413.435406,348.280424 C391.544598,368.608809 371.796617,386.922989 352.076954,405.139565 L349.443261,407.579681 L349.320544,407.686159 L349.226146,407.783764 C338.691372,417.473243 325.69282,429.540726 313.204015,440.951596 L300.450897,452.593168 L297.817203,454.997792 C289.802845,462.273774 281.590253,469.771586 273.509816,477.180665 C266.801292,483.338631 260.077035,489.487724 253.337045,495.627943 C247.833664,500.641273 242.254765,505.645729 236.855221,510.490468 L236.779703,510.552581 L234.023293,513.028189 L226.58476,519.691924 L218.28721,527.11875 C209.80401,534.956699 201.333397,542.797606 192.875371,550.64147 C192.826609,550.691113 192.758442,550.719947 192.686576,550.721328 C192.611656,550.721328 192.540009,550.692466 192.488341,550.64147 C192.462595,550.603598 192.462595,550.555118 192.488341,550.517246 C191.978593,550.907664 191.468846,551.28921 190.94022,551.661882 L190.458792,552.007935 L190.307756,552.114412 C189.32602,552.815391 188.221568,553.613975 187.079357,554.270588 C186.730086,554.47467 186.361935,554.669879 186.003224,554.856216 C185.833308,554.944947 185.653953,555.033679 185.465158,555.113537 L185.210284,555.220015 C184.998824,555.31284 184.781265,555.392862 184.558941,555.45959 C184.314368,555.532983 184.060313,555.574774 183.80376,555.583814 C183.435609,555.743531 183.048579,555.903247 182.670988,556.045218 L182.416115,556.142822 L182.312277,556.142822 L181.745892,556.346905 L181.557096,556.426763 C180.962391,556.684084 180.358247,556.89704 179.782421,557.101122 C179.30629,557.284725 178.813396,557.427281 178.309818,557.527034 L178.139903,557.527034 C177.899909,557.573199 177.657186,557.605792 177.413041,557.624638 L177.177047,557.624638 C175.169164,558.311227 173.074887,558.749682 170.946804,558.928991 C170.286021,559.00885 169.615798,559.00885 168.945575,559.00885 C168.435827,559.00885 167.92608,558.964484 167.416333,558.964484 L167.218098,558.964484 C166.966577,558.978016 166.714438,558.978016 166.462917,558.964484 C166.145709,558.933595 165.830567,558.886199 165.518941,558.822513 C163.480195,558.615923 161.485468,558.125494 159.60021,557.367317 L159.062144,557.145488 C157.679701,556.516351 156.375401,555.745631 155.172962,554.847342 L154.993607,554.723118 L154.634896,554.456924 C154.23943,554.419867 153.856689,554.304984 153.511564,554.119744 C153.313329,553.977774 153.143413,553.85355 152.935738,553.68496 C152.695278,553.488644 152.46827,553.278226 152.256076,553.054966 L151.944563,552.744406 C151.784088,552.584689 151.604732,552.407226 151.425377,552.194271 L151.330979,552.105539 L149.386388,550.277671 L145.988074,547.047844 L145.799279,546.861508 C145.642727,546.801402 145.491256,546.730212 145.34617,546.648552 C144.657911,546.231861 144.024232,545.740456 143.458218,545.184483 L143.146705,544.909415 L141.258753,543.20577 C139.956066,541.987191 138.656525,540.786358 137.360131,539.603272 L133.584227,536.054012 L129.808322,532.504752 C125.824742,528.795776 121.84431,525.077926 117.867023,521.351203 L114.091119,517.801944 C107.590269,511.709048 101.111446,505.645729 94.6546489,499.611987 L93.7106727,498.724672 L93.3708413,498.414112 L92.747817,497.837357 C85.1676882,490.792077 73.7172571,480.153171 63.2391215,470.259609 C58.9534696,466.207537 54.6709643,462.155466 50.3916056,458.103394 L47.4747192,455.343845 L41.5654283,449.744887 L38.6391021,446.976465 L38.5447045,446.896606 L35.0236734,443.578049 L33.8531429,442.468905 L32.2672629,440.978216 L31.2288891,440.002169 L26.1691768,435.246161 L25.0080861,434.154764 L24.7532125,433.915189 L24.5644172,433.728853 L24.3189834,433.507024 L24.2340256,433.427166 C23.2334108,432.477739 21.8552056,431.182259 20.5997173,429.940018 L19.7218194,429.052703 L19.6085423,428.937352 C19.2781506,428.600172 18.9383192,428.262993 18.5984878,427.934686 C18.4380118,427.766096 18.2680961,427.615253 18.0981804,427.455536 C17.7111502,427.144976 17.4279573,426.861035 17.1542042,426.568221 C16.962013,426.488227 16.7862768,426.377101 16.6350173,426.239915 C16.4947103,426.123553 16.3765869,425.985511 16.2857461,425.83175 C16.2007883,425.725272 16.1252702,425.609921 16.011993,425.450204 L15.8420773,425.192883 L15.7193604,425.01542 L15.6532821,424.953308 C15.3136557,424.700789 15.0581345,424.362068 14.9169807,423.977261 L14.6432276,423.666701 C14.3600347,423.347268 14.0862816,423.027834 13.8219683,422.690655 L13.6426128,422.459953 C13.5104561,422.28249 13.3405404,422.060661 13.2461428,421.918691 C13.1517452,421.77672 13.0573476,421.63475 12.9723897,421.49278 C12.8456986,421.275494 12.7352996,421.05016 12.641998,420.81842 L12.4532028,420.561099 C10.3265482,418.305022 8.43025217,415.866005 6.78934571,413.276243 C3.16057862,407.473071 0.906678215,401.002224 0.181512422,394.30545 C-0.174588545,390.819413 -0.00616264379,387.303597 0.681819799,383.861753 C1.3576715,380.553608 2.53383783,377.353437 4.17453168,374.35861 C4.95667723,372.944576 5.84302876,371.583667 6.82710476,370.285834 C7.71620643,369.078485 8.69403311,367.93105 9.75343093,366.851925 C10.8012445,365.760528 11.6413833,364.953071 12.5853595,364.189981 C12.7271647,363.930511 12.9119758,363.693895 13.1328657,363.489002 C13.3877392,363.205061 13.6614923,362.94774 13.9541249,362.672672 L14.1051611,362.521829 L15.4833664,360.933535 L16.9370897,359.575943 L18.4096925,358.191732 C31.9179917,345.582986 45.9454778,332.512837 61.3134101,318.262559 L76.1527157,304.473685 L105.415977,277.295228 C112.653128,270.569381 119.906012,263.852407 127.174628,257.144306 L131.337563,253.293359 L138.275788,246.886945 C140.107102,245.206962 141.941563,243.509233 143.779169,241.793757 L146.611098,239.220544 L147.243562,238.634916 C147.875821,238.009616 148.54389,237.417192 149.244792,236.860286 C149.575617,236.527683 150.019728,236.314247 150.50028,236.256912 C150.745242,236.128949 150.997331,236.013432 151.255461,235.910859 C151.302982,235.562772 151.519025,235.254883 151.840726,235.076783 C152.360255,234.785347 152.906858,234.538845 153.473805,234.340312 L153.766438,234.224961 C154.361143,233.985386 154.946408,233.763557 155.550553,233.550601 L155.63551,233.550601 L155.729908,233.550601 L155.956462,233.46187 C156.051563,233.425597 156.149371,233.39594 156.249095,233.373139 L156.343492,233.373139 C157.117553,233.106944 157.844415,232.885115 158.561837,232.681033 L158.646794,232.681033 C160.153978,232.267144 161.690114,231.952859 163.243958,231.740479 L163.357236,231.696113 C164.140736,231.571889 164.943116,231.483158 165.887092,231.421046 C166.528996,231.421046 167.15202,231.421046 167.775044,231.421046 L168.265912,231.421046 C168.775659,231.421046 169.304286,231.492031 169.89899,231.492031 L170.106665,231.492031 L170.380418,231.492031 C171.013682,231.532453 171.644007,231.606514 172.268371,231.71386 L172.627082,231.767098 C173.335064,231.864703 174.024166,231.9978 174.66607,232.130898 C174.775452,232.138532 174.883328,232.159409 174.987022,232.19301 C176.283243,232.486615 177.547389,232.893596 178.762927,233.408631 L178.885644,233.408631 L178.961162,233.408631 C179.056475,233.437923 179.148235,233.476587 179.234915,233.523982 C179.754102,233.728064 180.273289,233.949893 180.773596,234.180595 C180.917917,234.207002 181.053681,234.264732 181.170066,234.349185 C181.762876,234.629023 182.336656,234.943144 182.888103,235.289739 C183.312892,235.54706 183.737681,235.804381 184.153031,236.070576 C185.210284,236.736062 186.276977,237.481407 187.334231,238.271117 C188.392199,239.058581 189.400793,239.902942 190.354954,240.799965 C191.272292,241.692034 192.132807,242.634227 192.932009,243.621626 C194.890519,246.017309 196.380033,248.721378 197.330938,251.607461 C198.359474,254.633487 198.731823,257.822699 198.425951,260.98638 C198.28584,262.589248 197.969494,264.174167 197.481975,265.715768 C196.962766,267.357669 196.206859,268.925023 195.235311,270.374172 C194.759376,271.08764 194.219338,271.761501 193.621112,272.388377 C193.638671,272.999211 193.393673,273.590935 192.941449,274.029909 C191.506605,275.405247 190.043442,276.771712 188.55196,278.147051 L188.174369,278.501977 C187.296472,279.309433 186.428013,280.11689 185.559555,280.942093 L182.727627,283.604037 L181.321102,284.93501 L179.206596,286.913722 L177.129848,288.874688 L175.440131,290.516221 L174.496155,291.403536 C169.360924,296.230529 164.065218,301.199493 158.788391,306.203949 C151.752622,312.864727 144.729439,319.537335 137.718842,326.221774 L135.83089,327.996404 C130.450226,333.116211 124.956284,338.351369 119.688897,343.346953 C114.42151,348.342536 109.154123,353.320373 103.839537,358.342575 L99.1196562,362.77915 L95.2871129,366.408268 L92.3702265,369.194437 L88.4904844,372.885667 C86.8857249,374.42368 85.2715256,375.958734 83.6478866,377.490832 L81.5994583,379.442924 L81.5333799,379.496163 L81.4767414,379.558275 L81.3540245,379.673626 L81.2218678,379.79785 L80.9669942,380.037425 L80.7687592,380.232635 C80.40979,380.602029 80.0284176,380.951622 79.626548,381.279666 L78.8336081,381.998392 L78.6636923,382.149235 L78.5504152,382.255713 C78.3333007,382.459795 77.9934692,382.788102 77.6819571,383.143028 L76.8795774,384.030343 L76.6907821,384.261045 C75.8484412,385.321363 75.1240788,386.460133 74.5290767,387.659461 C74.3780405,388.058753 74.2175645,388.458044 74.0665283,388.875082 L73.8966126,389.300993 L73.8305343,389.469583 C73.6322993,389.993099 73.4151848,390.543234 73.2547088,391.119989 L73.0942329,391.670124 L73.0942329,391.74111 C73.0942329,392.379976 73.0942329,393.027716 73.0942329,393.684329 C73.1198532,394.912366 73.2112198,396.138412 73.3679859,397.357813 C73.5286555,398.479959 73.7907706,399.587194 74.1514862,400.667498 L74.3497212,401.226506 L74.3497212,401.306365 L74.5385164,401.634671 C74.7556309,402.042836 74.9821852,402.451001 75.2087395,402.859166 L75.3314564,403.080995 C75.624089,403.613384 75.9167216,404.136899 76.1999145,404.669288 L76.6247038,405.485618 L76.8606978,405.929276 C80.0702169,408.957977 83.2891756,411.980763 86.5175742,414.997634 L95.4192696,423.294029 L96.8729929,424.633875 L98.0624029,425.814003 C101.926412,429.410587 105.780982,433.004212 109.626111,436.59488 L116.526577,443.072279 L120.057048,446.381964 L124.229423,450.295023 L133.168877,458.697895 L149.999973,474.465482 L152.954618,477.225031 L153.058455,477.322636 L153.115094,477.375875 L155.947023,480.03782 L156.03198,480.108805 L167.038743,490.419404 L167.208658,490.570248 L170.758009,493.924298 L171.041202,493.649231 L171.749184,493.001491 L175.525089,489.452231 L179.300993,485.902971 L190.392713,475.663357 L194.801082,471.572835 L207.18605,460.037741 L211.905931,455.601166 L215.351444,452.406832 L225.876778,442.646368 C250.206191,419.99026 274.573363,397.369644 298.978294,374.784521 L304.642151,369.460631 C330.601496,345.372988 356.560841,321.294219 382.520186,297.224322 L400.899402,280.179002 L419.571251,262.805375 L420.00548,262.414957 L420.477468,261.971299 C425.622139,257.206418 430.681851,252.530268 435.949238,247.685529 L443.01962,241.225876 L443.963596,240.338561 C444.926452,239.451246 445.936506,238.563931 446.880482,237.676616 L447.531826,237.090988 L448.56076,236.203673 L448.711796,236.079449 C448.843953,235.955225 448.976109,235.839874 449.108266,235.733396 L449.325381,235.555933 C449.504736,235.413963 449.674652,235.263119 449.835128,235.112276 L449.929525,235.032417 L450.335435,234.677491 C450.465243,234.564588 450.615502,234.474435 450.779104,234.411297 C450.958459,234.2782 451.137815,234.145103 451.33605,234.020878 L451.496526,233.905527 L451.600363,233.843415 L451.987393,233.586094 L452.062912,233.541728 L452.147869,233.488489 C452.544339,233.204549 453.035207,232.920608 453.488316,232.64554 C453.712048,232.514616 453.945496,232.398968 454.186858,232.299487 C454.323041,232.229491 454.465116,232.170137 454.611647,232.122024 L454.772123,232.051039 C455.168593,231.891323 455.583943,231.767098 455.980413,231.642874 L456.08425,231.642874 L456.310804,231.571889 C456.716714,231.456538 457.113184,231.332314 457.500214,231.181471 C457.836777,231.05697 458.18891,230.973475 458.548028,230.933022 C458.86898,230.808798 459.180492,230.702321 459.492004,230.595843 C459.916068,230.446761 460.351544,230.328113 460.794691,230.240917 C461.187432,230.175157 461.585215,230.139547 461.984101,230.134439 L462.465529,230.134439 C462.937517,230.090073 463.400066,230.036834 463.834295,230.036834 C463.900873,229.99798 463.974458,229.970915 464.051409,229.956976 C464.132596,229.943545 464.215656,229.943545 464.296843,229.956976 Z M164.112416,234.118483 L164.112416,234.162849 L164.320091,234.162849 C164.40358,234.141389 164.488837,234.126548 164.574965,234.118483 L164.263453,234.118483 L164.112416,234.118483 Z M175.827161,492.753043 L176.138673,492.469102 L175.85548,492.726423 L175.827161,492.753043 Z" id="Combined-Shape" fill="url(#linearGradient-1)"></path>
                    <path d="M320.658515,7.01788175 L320.737641,7.062231 C321.079849,6.98123675 321.432135,6.93951087 321.786057,6.9380531 C322.481801,6.94185208 323.164124,7.11012381 323.764201,7.42589484 C324.669403,7.87874268 325.327397,8.64520453 325.584093,9.54578897 C325.67311,10.0602403 325.781908,10.5924313 325.781908,11.1157524 C326.02558,11.7994783 326.16531,12.5095535 326.197318,13.2267767 C326.197318,13.5283516 326.197318,13.8210566 326.197318,14.1137617 C326.246771,14.2379396 326.246771,14.3621175 326.246771,14.4862954 C326.428244,15.8162899 326.510849,17.155638 326.494039,18.4954675 C326.494039,20.2250882 326.494039,21.9192296 326.494039,23.6931995 C326.494039,27.507235 326.494039,31.3656197 326.494039,35.2240044 C326.494039,39.700322 326.494039,44.1736829 326.494039,48.6440873 L326.494039,55.0303792 C326.484149,56.9196572 326.573165,58.8355448 326.414914,60.715953 C326.391623,61.7610929 325.973132,62.7681391 325.228027,63.5720447 L325.228027,63.9800578 C325.243014,65.5196914 324.098551,66.8748163 322.441878,67.2790545 C320.785205,67.6832928 319.032893,67.0349986 318.175945,65.7008086 C317.830689,65.180373 317.649506,64.5856269 317.651737,63.9800578 L317.651737,63.5809145 C316.931054,62.7630895 316.525065,61.7579646 316.494523,60.715953 C316.494523,59.7934886 316.494523,58.826675 316.494523,57.93969 C316.494523,56.7866095 316.494523,55.633529 316.494523,54.4893184 C316.543976,52.3694242 316.543976,50.2495301 316.543976,48.129636 C316.596727,43.641492 316.649477,39.1533479 316.702228,34.6652039 C316.741791,30.8068192 316.741791,26.9661742 316.820916,23.134399 C316.860479,21.4047783 316.860479,19.7195068 316.919824,17.9455368 C316.929001,16.7199385 317.028123,15.4962108 317.216545,14.2822888 L317.275889,13.8654059 C317.325343,13.5993104 317.325343,13.324345 317.325343,13.0671194 C317.33299,12.5782615 317.392604,12.0911716 317.503376,11.612464 C317.572705,11.3974496 317.658632,11.1870217 317.760535,10.9827046 L317.819879,10.3972946 C317.828404,10.1556087 317.86151,9.9151251 317.918786,9.67883671 L317.918786,9.50143972 C318.282779,8.29979849 319.322571,7.35723006 320.658515,7.01788175 Z M377.528968,34.5614486 L377.51324,34.6614241 L377.455974,35.0761791 C377.314132,35.5897387 377.064418,36.0724875 376.721053,36.4969356 L376.558798,36.71755 L376.329732,37.0617084 C376.157933,37.3087965 375.986133,37.5647092 375.804789,37.8117972 L375.213035,38.6942547 L374.831258,39.2413784 C374.752025,39.3979334 374.659471,39.5484241 374.55447,39.6914317 L374.506748,39.7708528 L374.363581,39.9826426 C374.067704,40.4768188 373.73365,40.9621704 373.409139,41.4386975 L373.294606,41.6063644 L373.055996,41.9328737 C371.586155,44.0242979 370.440824,45.6480196 369.238227,47.3070397 L367.71112,49.4072885 C365.706792,52.1782049 363.692919,54.9491214 361.669501,57.7200379 C360.342827,59.5467249 359.006608,61.3822364 357.660845,63.2089234 L357.24089,63.7913453 L354.84524,67.0740871 L354.77843,67.1711574 L354.396653,67.7006319 C353.887912,68.4651414 353.309996,69.1884041 352.669112,69.8626527 C352.258156,70.264771 351.746964,70.5677441 351.180183,70.7451102 C350.602272,71.1466519 349.898761,71.3634689 349.175854,71.3628305 C349.147128,71.3607628 349.118473,71.3584088 349.089893,71.3557711 C347.114987,71.4656852 345.258507,70.2833592 344.708172,68.4368021 C344.378332,67.4017655 344.533331,66.2850742 345.134929,65.3622453 C345.609104,64.6201109 346.16863,63.9133162 346.671255,63.1976866 C347.401484,62.1905042 348.12223,61.1656519 348.852459,60.1584695 C350.666967,57.6434584 352.49412,55.1313924 354.333918,52.6222713 C355.310718,51.2351867 356.344418,49.9276166 357.292768,48.5847067 C360.71947,43.8491823 364.13985,39.1048231 367.553907,34.3516289 C371.233502,29.2450373 374.894131,24.1296109 378.592693,19.0406892 C380.318689,16.7171017 382.025718,14.3405046 383.761197,11.9727425 C384.624195,10.8065312 385.487193,9.61381522 386.369157,8.43876907 C386.786431,7.88216827 387.194221,7.31673253 387.620979,6.76896665 L388.474493,5.57625064 C389.043503,4.79877649 389.640963,3.93295301 390.172038,3.24382821 C390.703114,2.5547034 391.215222,1.83907379 391.812683,1.19412364 L391.765265,1.08810444 C392.506446,0.367983061 393.539826,-0.0267273727 394.610313,0.00140762922 C394.971609,0.00167288235 395.331506,0.043212585 395.681948,0.125096698 C396.694909,0.402140346 397.55215,1.03596198 398.071788,1.89208339 C398.619098,2.76162359 398.766153,3.80026271 398.479578,4.77227169 C398.381746,5.08079591 398.244853,5.37737875 398.071788,5.65576504 C397.657468,6.36287758 397.194993,7.04456084 396.687198,7.69663466 C396.108705,8.50944854 395.530212,9.32226242 394.932752,10.1350763 L394.705148,10.4619688 L394.65773,10.5238134 C393.974919,11.5221608 393.27314,12.5205083 392.580845,13.5100209 C390.753692,16.0721516 388.926539,18.6313373 387.099386,21.187578 C383.909247,25.6455349 380.719108,30.1034917 377.528968,34.5614486 Z M277.374034,38.7626664 L277.374034,38.7895457 C278.420688,38.5198327 279.538576,38.6587127 280.475182,39.1748147 C280.773665,39.3376553 281.045939,39.5397953 281.283763,39.7751175 C282.054293,40.5979009 282.724375,41.4995151 283.281435,42.4630406 C284.194656,43.8518009 285.098365,45.249521 286.002074,46.6382813 C287.758757,49.3262044 289.512269,52.0141276 291.26261,54.7020507 L293.74543,58.4920224 C293.812019,58.5995393 293.888121,58.7070562 293.964223,58.8145732 C294.915495,60.2302127 295.933357,61.5383353 296.884629,62.9181358 C297.464905,63.7424323 298.035668,64.5936079 298.663508,65.3910251 C299.276702,66.1587939 299.845133,66.9573892 300.366286,67.7832767 C300.725177,68.3591987 300.933833,69.00712 300.9751,69.6737827 C301.472227,70.5467559 301.60132,71.5642599 301.336583,72.5229812 L301.28902,72.6304982 C301.196215,72.9280954 301.065241,73.2139285 300.898998,73.4816738 C300.195172,74.6299157 298.891604,75.3344421 297.483931,75.327381 C296.742828,75.3295481 296.014283,75.1471811 295.372106,74.7987562 C294.864991,74.5143656 294.42995,74.1290766 294.097401,73.6698284 C293.423296,73.2975691 292.860371,72.7704496 292.461213,72.1377122 C291.861911,71.2417379 291.386275,70.3457635 290.863075,69.4497891 C289.499585,67.0664972 288.094873,64.7041114 286.648939,62.3626317 L286.563324,62.2371953 L284.194656,58.5995393 L278.705815,50.1863398 C277.805277,48.8125124 276.907911,47.4297253 276.013715,46.0379784 C275.424177,45.2224886 274.938845,44.3443377 274.567781,43.4217332 C273.994854,41.4074372 275.244392,39.3328994 277.374034,38.7626664 Z" id="Combined-Shape" fill="url(#linearGradient-2)"></path>
                </g>
            </g>
        </g>
    </g>
</svg>