<?xml version="1.0" encoding="UTF-8"?>
<svg width="48px" height="48px" viewBox="0 0 48 48" version="1.1" xmlns="http://www.w3.org/2000/svg" xmlns:xlink="http://www.w3.org/1999/xlink">
    <!-- Generator: Sketch 53.2 (72643) - https://sketchapp.com -->
    <title>Kloudbar.Search</title>
    <desc>Created with Sketch.</desc>
    <defs>
        <linearGradient x1="0%" y1="50%" x2="100%" y2="50%" id="linearGradient-1">
            <stop stop-color="#2193B0" offset="0%"></stop>
            <stop stop-color="#6DD5ED" offset="100%"></stop>
        </linearGradient>
    </defs>
    <g id="Kloudbar.Search" stroke="none" stroke-width="1" fill="none" fill-rule="evenodd">
        <rect id="Rectangle" fill="#FFFFFF" x="0" y="0" width="48" height="48"></rect>
        <path d="M4.79861503,12.2943264 C4.27808366,11.8171791 4.03366023,11.185168 4.00197571,10.511302 C3.97029119,9.84162147 4.32334726,9.21379597 4.79861503,8.73664859 C5.25577737,8.27205772 6.0524167,8 6.71779159,8 C7.414851,8 8.14359492,8.28042872 8.63696814,8.73664859 C8.64602086,8.7450196 8.65507358,8.7533906 8.6641263,8.76176161 C9.26160579,9.29750604 9.8455062,9.85417798 10.433933,10.3982934 C11.6469974,11.5200083 12.8645882,12.6459087 14.0776526,13.7676236 C15.4808241,15.0651296 16.888522,16.3668212 18.2916936,17.6643272 C19.4504417,18.7358161 20.6137162,19.8114904 21.7724643,20.8829793 C22.2522584,21.3266426 22.7365789,21.7744915 23.2208994,22.2223404 C24.2619621,23.1850061 24.2574358,24.8173524 23.2208994,25.7758327 C23.2118467,25.7842037 23.202794,25.7925747 23.1937412,25.8009457 C22.6143672,26.3534322 22.0123613,26.8933621 21.4239346,27.4374775 C20.2108701,28.5591924 18.9932793,29.6850928 17.7802149,30.8068077 C16.3770434,32.1043138 14.9693455,33.4060053 13.566174,34.7035113 C12.4074258,35.7750002 11.2441514,36.8506746 10.0854033,37.9221634 C9.60560914,38.3658268 9.12128864,38.8136756 8.63696814,39.2615245 C8.11643676,39.7428574 7.43748279,39.9688745 6.71779159,39.9981731 C5.99357402,40.0274716 5.31462005,39.7010023 4.79861503,39.2615245 C4.2961891,38.8387886 4.00197571,38.1021401 4.00197571,37.4868711 C4.00197571,36.8423035 4.30524182,36.1684375 4.79861503,35.7122176 C4.80766775,35.7038466 4.81672047,35.6954756 4.82577319,35.6871046 C5.40514725,35.1346182 6.0071531,34.5946883 6.59557987,34.0505728 C7.8086443,32.9288579 9.02623508,31.8029575 10.2392995,30.6812426 C11.642471,29.3837366 13.0501689,28.082045 14.4533405,26.784539 C15.6120886,25.7130502 16.775363,24.6373758 17.9341112,23.5658869 C18.4139053,23.1222236 18.8982258,22.6743747 19.3825463,22.2265259 C19.3825463,23.4110233 19.3825463,24.5955208 19.3825463,25.7800182 C19.3734936,25.7716472 19.3644409,25.7632762 19.3553881,25.7549052 C18.7579086,25.2191608 18.1740082,24.6624888 17.5855815,24.1183734 C16.372517,22.9966585 15.1549262,21.8707581 13.9418618,20.7490432 C12.5386903,19.4515372 11.1309924,18.1498456 9.72782085,16.8523396 C8.56907274,15.7808507 7.40579828,14.7051764 6.24705017,13.6336875 C5.76725603,13.1900241 5.28293553,12.7421753 4.79861503,12.2943264 Z M21.3861594,39.9963018 C20.7382694,39.9963018 20.1659003,39.7133876 19.7008505,39.2640533 C19.2318258,38.8147189 19.0291118,38.144878 19.0012883,37.5 C18.9774396,36.8800851 19.2874728,36.1686391 19.7008505,35.7359467 C20.1341021,35.2824519 20.7740425,35.0036982 21.3861594,35.0036982 C21.3980837,35.0036982 21.4100081,35.0036982 21.4219324,35.0036982 C22.2407382,34.9953772 23.0595439,35.0036982 23.8783496,35.0036982 C25.5636585,35.0036982 27.2449926,35.0036982 28.9263267,35.0036982 C30.8739713,35.0036982 32.8176413,35.0036982 34.7652859,35.0036982 C36.3790487,35.0036982 37.9928114,35.0036982 39.6065742,35.0036982 C40.2743381,35.0036982 40.9460767,35.0036982 41.6138406,35.0036982 C42.2577558,35.0036982 42.8340997,35.2866124 43.2991495,35.7359467 C43.7681742,36.1852811 43.9708882,36.855122 43.9987117,37.5 C44.0225604,38.1199149 43.7125272,38.8313609 43.2991495,39.2640533 C42.8658979,39.7175481 42.2259575,39.9963018 41.6138406,39.9963018 C41.6019163,39.9963018 41.5899919,39.9963018 41.5780676,39.9963018 C40.7592618,40.0046228 39.9404561,39.9963018 39.1216504,39.9963018 C37.4363415,39.9963018 35.7550074,39.9963018 34.0736733,39.9963018 C32.1260287,39.9963018 30.1823587,39.9963018 28.2347141,39.9963018 C26.6209513,39.9963018 25.0071886,39.9963018 23.3934258,39.9963018 C22.7256619,39.9963018 22.0539233,39.9963018 21.3861594,39.9963018 Z" id="Combined-Shape" fill="url(#linearGradient-1)" fill-rule="nonzero"></path>
    </g>
</svg>