<?xml version="1.0" encoding="UTF-8"?>
<svg width="1024px" height="1024px" viewBox="0 0 1024 1024" version="1.1" xmlns="http://www.w3.org/2000/svg" xmlns:xlink="http://www.w3.org/1999/xlink">
    <!-- Generator: Sketch 53.2 (72643) - https://sketchapp.com -->
    <title>Logo-Solid-White</title>
    <desc>Created with Sketch.</desc>
    <defs>
        <linearGradient x1="0%" y1="50%" x2="100%" y2="50%" id="linearGradient-1">
            <stop stop-color="#CC2B5E" offset="0%"></stop>
            <stop stop-color="#F06723" offset="100%"></stop>
        </linearGradient>
    </defs>
    <g id="Logo-Solid-White" stroke="none" stroke-width="1" fill="none" fill-rule="evenodd">
        <circle id="Oval" fill="url(#linearGradient-1)" cx="512" cy="512" r="512"></circle>
        <g id="logo" transform="translate(152.000000, 172.000000)" fill="#FFFFFF">
            <path d="M503.747485,605.158749 C503.730914,605.029994 503.715565,604.900986 503.701541,604.771628 C503.661464,604.726584 503.622234,604.680919 503.583863,604.634655 C503.636597,604.809829 503.69114,604.984535 503.747485,605.158749 Z M559.425462,360.465429 C559.403946,360.445316 559.382431,360.425204 559.360917,360.405091 C559.094264,359.786847 558.838276,359.168604 558.603621,358.530416 C558.336005,357.767558 558.111703,356.99201 557.931654,356.207016 C557.537007,354.601577 557.185024,352.996137 556.929036,351.360782 C556.790377,350.233983 556.694381,349.097212 556.619718,347.960441 C556.619718,347.83081 556.619718,347.71115 556.619718,347.591489 C556.683715,346.863557 556.758378,346.145597 556.843707,345.427636 L556.843707,345.288033 C557.05703,344.231035 557.313018,343.154094 557.590337,342.156927 C557.675667,341.807918 557.760996,341.448938 557.856991,341.159759 C557.952986,340.870581 558.048982,340.581402 558.155643,340.282252 C558.475627,339.364858 558.795612,338.437492 559.10493,337.510127 L559.179593,337.330636 C559.50369,336.643486 559.852909,335.965144 560.217027,335.294015 L560,335.057117 C560.329096,334.458944 560.658192,333.860771 560.997904,333.272567 C561.62253,332.225732 562.332377,331.225799 563.121103,330.281702 C563.726215,329.593802 564.352559,328.875995 564.936439,328.227974 C565.520319,327.579953 566.104198,326.902023 566.719926,326.234063 L566.741158,326.064581 C567.601911,325.118549 568.516207,324.216664 569.480085,323.362832 L569.86436,323.746785 C570.299336,323.387263 570.74558,323.038829 571.202591,322.701936 L571.22426,322.662444 L571.830976,322.247788 L571.952352,322.336886 C572.410808,322.019489 572.875088,321.70697 573.343036,321.401362 C574.26307,320.779746 575.215982,320.202485 576.1981,319.671802 L576.845531,319.351884 C578.023643,318.941988 579.201754,318.572082 580.411707,318.252164 C582.128992,317.762358 583.876412,317.371731 585.644221,317.082462 C586.365947,316.982487 587.066446,316.852521 587.766945,316.732551 L587.873081,316.732551 C588.264182,316.817581 588.670706,316.817581 589.061807,316.732551 C589.698624,316.682564 590.346055,316.682564 590.982872,316.682564 L592.245893,316.672566 L593.307255,316.672566 C594.23127,316.714344 595.150137,316.790069 596.063855,316.882852 L595.839058,316.672566 L597.681791,316.872067 C598.550206,316.991768 599.429211,317.141393 600.297625,317.300994 C601.238572,317.453915 602.163477,317.684222 603.061725,317.989272 C603.808697,318.281976 604.537116,318.615031 605.243351,318.986777 C605.624606,319.176302 605.984681,319.385778 606.302393,319.575304 C606.620106,319.76483 606.96959,319.904481 607.308483,320.074056 L608.208669,320.493008 L634.356417,344.90194 L651.015148,360.393183 C668.235171,376.353254 683.972536,391.086393 699.138018,405.280881 L700.800714,406.747212 L702.421048,408.273394 L704.179058,409.929251 L704.359095,410.098827 C704.676808,410.408053 704.98393,410.697329 705.269871,411.016531 C705.520915,411.244224 705.728671,411.510758 705.884116,411.804559 C706.869025,412.692338 707.800982,413.570142 709.061242,414.797072 C710.242852,416.015799 711.339487,417.305275 712.344272,418.657414 C713.445995,420.113941 714.433521,421.644178 715.298999,423.235959 C717.13576,426.534961 718.459,430.065728 719.228045,433.71973 C720.003424,437.588521 720.195946,441.540946 719.799928,445.460357 C718.988006,452.989084 716.459255,460.263822 712.386634,466.787001 C710.548476,469.69698 708.420824,472.435808 706.032381,474.966537 L705.820573,475.255813 C705.718487,475.522202 705.590875,475.779288 705.439318,476.023891 C705.350706,476.185711 705.251678,476.342278 705.142786,476.492718 C704.99452,476.722144 704.825073,476.941595 704.655627,477.161046 L704.49677,477.360547 C704.210829,477.739599 703.893116,478.0987 703.585994,478.457802 L703.278872,478.806929 C703.119237,479.241543 702.828483,479.622865 702.442229,479.904183 L702.368096,479.983984 L702.23042,480.17351 L702.039793,480.462786 C701.912708,480.642337 701.827985,480.772012 701.732671,480.891713 C701.625301,481.061053 701.493419,481.215487 701.340825,481.350565 C701.172915,481.506857 700.975332,481.632053 700.758352,481.719641 C700.427277,482.087881 700.073661,482.437602 699.69931,482.767021 L699.138018,483.305673 C698.756763,483.67475 698.386098,484.053802 698.015433,484.432853 L697.888348,484.572504 L696.892849,485.570008 C695.494913,486.946564 693.959302,488.392946 692.720223,489.560026 L692.455463,489.819377 L692.243654,490.018878 L691.947122,490.288204 L690.644501,491.525109 L684.968035,496.861758 L683.803089,497.959013 L676.76046,504.612367 L676.654555,504.712117 L673.371525,507.824331 L666.741922,514.108609 L663.469482,517.210847 L649.066511,530.876657 C637.226421,542.078631 624.517916,553.899058 615.251298,562.527471 L614.870043,562.886573 L613.811001,563.884077 C606.489491,570.687057 599.189161,577.500012 591.910012,584.322942 L587.673844,588.312959 C583.225867,592.495828 578.76024,596.672046 574.276962,600.841615 L570.040794,604.831632 L565.804626,608.82165 L561.420192,612.871517 L559.302108,614.786726 L558.963214,615.095952 C558.33006,615.722845 557.61889,616.275469 556.84513,616.741834 C556.689445,616.836606 556.522358,616.913621 556.347381,616.97126 L556.124982,617.200686 L552.312431,620.821627 L550.130804,622.886461 L550.0249,622.986212 C549.823682,623.225613 549.633054,623.415139 549.442427,623.604665 L549.092943,623.953791 C548.838773,624.213142 548.552831,624.482468 548.330433,624.662019 C548.108034,624.84157 547.906816,624.981221 547.695007,625.130846 C547.228278,625.396194 546.693962,625.537523 546.148806,625.539823 C545.891262,625.538984 545.641239,625.508201 545.402446,625.450982 C544.108941,626.393705 542.712587,627.206002 541.236548,627.874252 L540.637926,628.120144 C538.766714,628.86664 536.800105,629.379907 534.788497,629.647578 C534.457201,629.699876 534.124521,629.745962 533.790679,629.785788 C533.550824,629.827899 533.308965,629.859583 533.065879,629.880727 C532.818757,629.908565 532.570306,629.924628 532.321486,629.928861 C531.608893,629.9796 530.894356,630.003204 530.179854,629.999651 C529.478554,630.003179 528.77714,629.979931 528.077359,629.929906 C525.675243,629.735975 523.311993,629.239725 521.051424,628.454556 C516.982782,627.022268 513.300489,624.769087 510.26572,621.854826 C508.639127,620.279711 507.166443,618.571316 505.865321,616.750117 C504.686156,615.107592 503.633282,613.388567 502.714677,611.606065 C502.452123,611.104447 502.210574,610.622499 501.990029,610.091373 C501.990029,610.219237 502.105552,610.356936 502.168565,610.4848 C500.393196,606.943635 499.376316,603.110856 499.175454,599.203294 L499.175454,599.016417 C499.139649,598.143261 499.150714,597.269401 499.208471,596.398133 C499.086391,595.296026 499.17322,594.179847 499.467491,593.102036 C499.607472,592.572317 499.784819,592.051955 499.998353,591.544405 C500.157612,591.125043 500.316871,590.705681 500.497364,590.296304 L500.592919,589.757124 C500.888955,588.534232 501.352931,587.352763 501.973162,586.24247 C502.472173,585.243989 503.034887,584.245508 503.608219,583.306935 C504.134842,582.348742 504.74569,581.433611 505.434386,580.571097 C505.975866,579.882145 506.496111,579.203178 507.122529,578.574134 C510.04656,574.405954 513.489722,570.581285 517.378793,567.181464 L517.920273,566.732147 C518.344963,566.282831 518.78027,565.833514 519.236812,565.404167 C520.092397,564.599547 520.977537,563.817163 521.87459,563.048719 C522.079614,562.829426 522.299269,562.622226 522.532317,562.428392 L522.915459,562.07981 L525.88481,559.311075 L532.270513,553.335389 L532.462084,553.166078 L544.871632,541.593166 L544.967418,541.51349 L548.160269,538.525647 L548.224126,538.46589 L548.35184,538.356336 C555.830207,531.42454 563.280193,524.492745 570.701799,517.560949 L580.716709,508.089486 L585.420843,503.697357 L589.401264,499.982472 L597.181178,492.712054 C601.523456,488.681786 605.869281,484.648198 610.218654,480.61129 L611.51708,479.396234 L613.156077,477.892353 C616.519214,474.784996 619.864612,471.677639 623.192273,468.570282 C626.800827,465.224988 630.399763,461.861692 633.989081,458.480396 C634.194197,458.090041 634.39394,457.697162 634.588255,457.301855 C635.204977,456.156928 635.853598,455.031914 636.47032,453.886988 C636.62134,453.626763 636.77767,453.369422 636.939207,453.115104 C637.008507,452.905087 637.079355,452.692846 637.155675,452.485727 C637.570219,451.274542 637.869385,450.031396 638.049674,448.770843 C638.230602,447.29684 638.358316,445.952311 638.358316,444.647619 C638.358316,443.930537 638.358316,443.193536 638.358316,442.466494 L638.358316,442.386818 L638.188031,441.76933 C637.996459,441.121964 637.762317,440.494517 637.528175,439.896949 L637.453675,439.727638 L637.272747,439.239623 C637.102461,438.781487 636.921533,438.333311 636.740605,437.875175 C636.07709,436.525394 635.259963,435.246507 634.303395,434.060695 L634.090538,433.801749 C633.792539,433.453167 633.526468,433.114545 633.19654,432.756004 C632.866612,432.397463 632.504755,432.048881 632.206756,431.760056 L632.079042,431.640543 L631.887471,431.471231 C631.596567,431.192366 631.298567,430.92346 630.993472,430.664514 C630.543535,430.293119 630.113736,429.900889 629.705689,429.489296 L629.48219,429.270187 L629.194833,429.001281 L629.045833,428.861849 L628.907476,428.722416 L628.843619,428.662659 L628.769119,428.602902 L626.448981,426.411817 L620.999848,421.242849 L616.625642,417.099707 L613.337005,413.972431 L609.016013,409.899005 L603.694595,404.919266 C597.72751,399.315401 591.771069,393.704896 585.825271,388.087751 C579.744663,382.304614 573.67115,376.548037 567.604733,370.818018 L565.476166,368.826123 C564.582167,367.979567 563.688169,367.142971 562.804813,366.296415 C561.964029,365.091319 561.187102,363.836425 560.388889,362.60145 C560.122818,361.983962 559.846105,361.45611 559.537462,360.729068 C559.500104,360.641066 559.462745,360.55321 559.425462,360.465429 Z M600.629619,321.153893 C600.982735,321.572303 601.344619,321.995155 601.660173,322.431099 C602.531867,323.139869 603.401969,323.848639 604.26986,324.559153 L600.629619,321.153893 Z M707.870943,425.084174 C707.885549,425.164313 707.899608,425.244551 707.913117,425.324883 C708.069678,425.549041 708.224393,425.77494 708.376987,426.002066 C708.212978,425.69376 708.044277,425.387764 707.870943,425.084174 Z M502.59347,599.526505 C502.649878,599.372312 502.715677,599.220872 502.79069,599.072954 C502.721171,599.104833 502.650418,599.133236 502.578708,599.158172 C502.580352,599.280875 502.585556,599.403609 502.59347,599.526505 Z M512.550514,111.504425 L514.834804,111.544383 C516.077884,111.544383 517.310338,111.604321 518.372799,111.604321 L520.79521,111.724197 L582.524183,111.724197 C582.692743,111.718076 582.859353,111.75985 583.00229,111.844073 C584.181622,111.754166 585.360953,111.754166 586.550909,111.754166 C588.197723,111.704218 589.855162,111.704218 591.501977,111.704218 L592.022582,111.704218 C592.426317,111.704218 592.840677,111.754166 593.30816,111.754166 L593.796892,111.754166 L595.263088,111.684238 C595.762444,111.684238 596.176804,111.684238 596.750533,111.684238 C597.324262,111.684238 597.972363,111.704218 598.684212,111.754166 C600.012288,111.854062 601.202244,111.953959 602.402825,112.123783 C603.603405,112.293607 604.772112,112.513379 605.972693,112.743141 C606.546422,112.863017 607.120151,113.012861 607.693879,113.152716 L608.203861,113.282582 L608.405728,113.282582 C608.735091,113.362499 609.106952,113.462395 609.404441,113.542312 C609.70193,113.62223 610.020669,113.712136 610.318158,113.812033 L611.040631,114.021815 L611.157502,114.021815 L611.465615,114.101733 L611.635609,114.101733 C613.658264,114.485219 615.655514,114.978874 617.617263,115.5802 C620.071714,116.324896 622.450464,117.274359 624.725126,118.41726 C625.893629,118.96758 627.019123,119.595174 628.093127,120.295313 C629.242813,121.011407 630.342909,121.795511 631.386755,122.64288 C635.197547,125.873378 638.248268,129.817003 640.3433,134.220879 C641.423912,136.421762 642.294994,138.708342 642.946329,141.053797 C643.586831,143.302554 644.069519,145.588445 644.391276,147.896704 L644.476273,148.576 L644.476273,148.765803 C644.593143,149.345203 644.699389,149.924602 644.795011,150.513991 L644.795011,150.753743 L644.795011,150.973515 L644.795011,151.193287 L644.901257,151.862593 C645.018128,152.531899 645.124374,153.201206 645.219995,153.860522 C645.36874,154.809539 645.474986,155.758555 645.591856,156.707571 C645.729976,157.86637 645.836222,159.035159 645.931844,160.203947 L645.984967,160.863264 L645.984967,161.182933 L645.984967,161.362746 C646.03809,161.562539 646.03809,161.752342 646.03809,161.942146 L646.154961,163.190851 L646.154961,163.480551 L646.154961,163.590437 C646.271831,164.699288 646.388702,165.928014 646.463074,167.116782 C646.579945,168.924908 646.686191,170.733034 646.760563,172.54116 C646.760563,172.880808 646.760563,173.210466 646.760563,173.540124 L646.760563,177.765744 C646.760563,178.584895 646.760563,179.404046 646.760563,180.223197 L646.760563,181.801561 C646.760563,181.941416 646.760563,182.081271 646.760563,182.231116 L646.760563,182.570764 C646.757152,182.70594 646.735736,182.840182 646.696816,182.97035 C646.675095,183.063623 646.627432,183.149804 646.558696,183.220091 C646.51319,183.267802 646.454255,183.302435 646.388702,183.319987 C646.463074,186.936239 646.463074,190.552491 646.463074,194.168743 L646.463074,200.032665 C646.463074,203.079506 646.463074,206.0764 646.463074,209.073294 L646.463074,209.323035 C646.463074,212.899328 646.463074,216.485611 646.463074,220.051914 L646.463074,233.887574 C646.463074,235.615782 646.463074,237.334001 646.463074,239.05222 L646.463074,250.90993 C646.463074,252.827942 646.463074,254.825871 646.463074,256.8238 C646.463074,256.863759 646.463074,256.913707 646.463074,256.963655 L646.463074,257.892692 L646.463074,258.172402 L646.633068,258.262309 L646.505573,258.79176 L646.505573,258.901646 L646.441825,259.181356 C646.335579,259.670849 646.218708,260.170331 646.069964,260.669814 C646.006216,260.879596 645.931844,261.089379 645.857472,261.299161 L645.729976,261.698747 L645.729976,261.848592 C645.687478,261.968468 645.613106,262.098333 645.613106,262.228198 C643.061075,265.900941 639.73859,269.045259 635.849091,271.468621 C633.818254,272.737109 631.653517,273.805006 629.389329,274.655318 C628.298936,275.103246 627.177184,275.480405 626.031953,275.784148 C624.820748,276.133785 623.503296,276.433475 622.132722,276.693205 C619.656062,277.106164 617.146968,277.323365 614.631748,277.342532 L614.291761,277.342532 C611.595225,277.312373 608.905627,277.078528 606.248933,276.643257 C603.616982,276.191222 601.032351,275.522676 598.524843,274.645328 C597.216841,274.215423 595.93623,273.715114 594.689359,273.146881 C594.094381,272.88715 593.499403,272.61743 592.915049,272.317741 L592.521939,272.127937 L592.139453,271.928144 L591.863213,271.788289 C591.773051,271.746568 591.687618,271.696363 591.608223,271.638445 L591.470103,271.558527 L591.321358,271.47861 L590.832626,271.1989 C590.47139,270.989118 590.110153,270.779335 589.770165,270.549573 C589.026443,270.130008 588.357093,269.680474 587.645244,269.180992 C586.380915,268.251955 585.084713,267.223021 583.788511,266.104181 C582.044628,264.567108 580.40855,262.925364 578.890567,261.189275 C578.816194,261.109358 578.816194,261.009462 578.816194,260.919555 C578.722105,260.650939 578.612146,260.387468 578.486832,260.130373 L578.348712,259.850663 L578.008724,259.141398 C577.782066,258.575318 577.569574,257.995919 577.371248,257.4032 L577.201254,256.923697 C576.996825,256.413143 576.833456,255.888878 576.712522,255.355322 C576.670024,255.055633 576.648774,254.755943 576.648774,254.456254 C576.649206,254.310957 576.627744,254.166335 576.585027,254.026699 L576.585027,253.607134 L576.648774,246.015003 L576.648774,244.346733 L576.648774,238.802479 L576.648774,235.915472 L576.648774,234.496942 L576.648774,231.250307 L576.648774,228.692958 L576.648774,226.175567 L576.648774,223.588249 C576.744396,215.38675 576.808144,205.936545 576.808144,195.407459 L576.808144,195.107769 L576.808144,194.987894 L576.723147,194.718173 L576.63815,194.448453 C576.47848,193.922035 576.39626,193.377532 576.393784,192.83013 L576.393784,192.55042 L576.393784,191.841155 L576.393784,191.69131 C576.298162,191.311704 576.22379,191.012015 576.064421,190.552491 C575.905052,190.092967 575.745683,189.643433 575.55444,189.193899 L575.182579,188.294831 L575.033834,187.955183 C574.927588,187.715431 574.810717,187.47568 574.704471,187.275887 L574.481354,186.996177 L574.406982,186.90627 C574.013872,186.436757 573.599512,185.997212 573.163903,185.527699 L572.101442,184.3689 L571.910199,184.169107 C571.485215,183.729563 571.038981,183.300008 570.592748,182.870453 C570.433379,182.720609 570.263385,182.580754 570.093391,182.440899 L569.944647,182.331012 C569.700281,182.12123 569.44529,181.921437 569.1903,181.731634 L569.041555,181.631737 L568.91406,181.531841 L567.851599,180.792607 L567.352242,180.472938 L567.192873,180.353063 L566.778513,180.043384 L566.034791,179.58386 L565.907296,179.503943 L565.705428,179.374077 C565.333567,179.144315 564.951081,178.904564 564.55797,178.694781 C564.334854,178.574906 564.101112,178.46502 563.835497,178.345144 L563.580506,178.215278 L563.325516,178.105392 C563.059901,177.975527 562.783661,177.835672 562.507421,177.715796 L562.401175,177.715796 C562.178058,177.645869 561.85932,177.565951 561.668077,177.535983 C561.476834,177.506014 561.285591,177.456065 561.019976,177.396128 L560.881856,177.396128 L560.626865,177.346179 L560.456872,177.346179 L557.896341,177.346179 L556.408896,177.346179 L508.789402,177.346179 C504.635181,177.466055 500.512833,177.575941 496.135494,177.575941 L495.073033,177.575941 C491.938774,177.565951 488.623896,177.456065 485.564009,177.346179 L322.285032,177.346179 L321.041952,177.346179 L320.680716,177.346179 C319.788249,177.386138 318.449548,177.446076 317.238343,177.446076 L316.749611,177.446076 C314.688437,177.416107 312.637887,177.376148 310.576713,177.31621 L308.813028,177.266262 L299.250881,177.266262 C276.131734,177.266262 253.288826,177.226304 222.902447,177.166366 L208.187365,177.166366 L207.263024,177.166366 L186.481291,177.106428 L160.875985,177.106428 C158.793562,177.306221 156.381776,177.555962 153.290015,177.915589 C150.782607,178.205289 148.307074,178.484999 145.852789,178.73474 L145.725294,178.864605 L145.470303,179.094367 L145.225937,179.264191 L145.119691,179.344108 C145.068448,179.385932 145.022141,179.43282 144.981571,179.483963 L144.928448,179.543901 L144.864701,179.623818 C144.737995,179.748153 144.603154,179.864927 144.460966,179.973456 L144.259098,180.103321 L144.152852,180.173249 L144.046606,180.243177 L143.950984,180.303114 L143.823489,180.403011 C143.611025,180.579064 143.408861,180.765812 143.217886,180.962431 L143.090391,181.102286 C142.920397,181.27211 142.750404,181.431944 142.591035,181.601768 L142.30417,181.871489 L142.123552,182.061292 L141.879186,182.301044 L141.741066,182.430909 C141.432952,182.830495 141.146088,183.230081 140.8061,183.709584 L140.030504,184.858393 L139.807387,185.198041 L139.690517,185.447782 L139.573646,185.667554 L139.573646,185.807409 L139.573646,185.937275 C139.531147,186.06714 139.4674,186.197005 139.4674,186.33686 L139.4674,186.436757 L139.4674,186.576612 C139.427779,186.752152 139.378125,186.925558 139.318655,187.096073 C139.19116,187.515639 139.042415,187.915224 138.883046,188.3248 C138.808674,188.524593 138.734302,188.724386 138.670554,188.934168 L138.606806,189.15394 C138.561587,189.271063 138.526066,189.391297 138.50056,189.513568 C138.397566,189.904601 138.323021,190.301776 138.277444,190.702336 C138.192447,190.952077 138.192447,191.201818 138.192447,191.451559 L138.192447,191.7013 C138.177391,191.922563 138.130939,192.14094 138.054327,192.350627 L137.916207,192.750213 L137.916207,192.84012 C137.836088,193.023829 137.775584,193.214569 137.735589,193.409529 L137.639967,194.288618 L137.448724,196.126713 C137.41685,196.356475 137.363727,196.586237 137.363727,196.825988 L137.363727,196.975833 L137.363727,197.115688 L137.363727,197.245553 C137.363727,197.695087 137.363727,198.214549 137.363727,198.694052 C137.363727,198.903835 137.225607,199.113617 137.087488,199.113617 L137.087488,225.81594 C137.31863,227.873108 137.425049,229.94098 137.406226,232.00952 L137.406226,232.768733 C137.41685,234.26718 137.363727,235.6957 137.29998,237.353981 L137.29998,237.553774 L137.236232,239.012262 C137.236232,239.64161 137.236232,240.270957 137.236232,240.910295 C137.214983,241.909259 137.204358,242.908224 137.129986,243.907188 L137.129986,254.29642 C137.459679,255.468365 137.459679,256.700767 137.129986,257.872713 L137.129986,260.190311 C137.130649,260.342523 137.094308,260.492864 137.02374,260.629855 L137.02374,260.949524 C137.008196,261.247236 136.97628,261.543992 136.928118,261.838602 C136.88063,262.104914 136.816775,262.368416 136.736875,262.627784 C136.648229,262.896441 136.534455,263.15719 136.396888,263.406977 C136.357824,263.495388 136.307903,263.579203 136.248143,263.656718 L136.141897,263.806562 L135.865658,264.1562 L135.738162,264.286065 C135.753558,264.416722 135.727691,264.548749 135.66379,264.665672 C135.646872,264.781403 135.599386,264.891305 135.52567,264.985341 L135.260055,265.354957 C135.058187,265.614688 134.845695,265.864429 134.643828,266.114171 L134.463209,266.323953 L134.346339,266.513756 L134.346339,266.593674 C134.321557,266.647033 134.269428,266.684736 134.208219,266.69357 L133.687613,267.282959 C132.94389,268.072141 132.221417,268.781406 131.488319,269.430733 C129.805965,270.925716 127.973513,272.263921 126.016646,273.426591 C124.091649,274.554217 122.060969,275.513892 119.949995,276.293619 C117.783113,277.114539 115.533386,277.727032 113.235242,278.121725 C110.760266,278.5452 108.249891,278.759169 105.734269,278.761062 L105.043669,278.761062 C99.6621507,278.686738 94.3349371,277.737018 89.2980002,275.953972 C88.0442965,275.504437 86.8118419,275.024934 85.6325104,274.505473 C85.0375324,274.245742 84.4531789,273.966032 83.8688255,273.676332 L83.6669579,273.576436 L83.0826045,273.276746 L82.8276139,273.156871 C82.7824697,273.13932 82.7424111,273.111927 82.7107432,273.076954 C80.7859198,272.035042 78.9558192,270.845568 77.23907,269.52064 C75.6503228,268.231963 74.1492938,266.850669 72.7448608,265.384926 C72.6768799,265.269093 72.5986924,265.158821 72.5111194,265.055268 L72.5111194,264.99533 L72.2455042,264.505838 C72.0011382,264.066293 71.7461476,263.626749 71.5124062,263.187204 L71.4061602,262.727681 C71.3951195,262.591353 71.3951195,262.454433 71.4061602,262.318105 C71.3941388,262.231897 71.3941388,262.144582 71.4061602,262.058374 C71.1888108,261.807538 71.0722198,261.492813 71.0767973,261.169296 C71.0767973,260.629855 71.0767973,260.140362 71.0767973,259.630891 L71.0767973,258.591967 L71.0130496,257.792796 C71.0024769,257.623117 71.0024769,257.453002 71.0130496,257.283324 L71.0130496,257.093521 C70.9768708,256.915316 70.9768708,256.732284 71.0130496,256.55408 L71.0130496,256.294349 C71.0130496,254.905788 71.0130496,253.507238 71.0130496,252.088708 L71.0130496,250.879961 L71.0130496,246.504496 C71.0661727,244.067023 71.0661727,241.619559 71.0661727,239.182086 C71.1440865,233.527946 71.1830434,227.867147 71.1830434,222.199688 L71.1830434,219.362629 L71.1830434,217.754296 L71.1830434,215.037112 L71.1830434,212.989235 L71.1830434,212.619618 C71.2255418,209.882455 71.246791,207.148622 71.246791,204.418119 L71.246791,204.008544 L71.3424125,189.313775 L71.3424125,186.396798 C71.3424125,183.749542 71.3424125,181.082307 71.3424125,178.405082 L71.3424125,168.285571 C71.3375858,168.245741 71.3375858,168.205525 71.3424125,168.165695 L71.3424125,168.075788 C71.3264867,167.826271 71.3264867,167.576081 71.3424125,167.326565 C71.3849109,166.956948 71.438034,166.567352 71.5230308,166.107828 L71.5230308,166.017921 C71.5549047,164.90907 71.5974031,163.80022 71.6611507,162.701359 C71.6028067,160.757985 71.6702203,158.813074 71.8630183,156.877395 C71.8796041,156.411477 71.9328729,155.947353 72.0223874,155.488835 L72.0223874,155.269062 L72.0223874,155.089249 C72.0436366,154.929414 72.0967597,154.77957 72.0967597,154.619735 C72.4023432,152.732701 72.8280928,150.864609 73.3717127,149.025534 C74.0835643,146.575609 75.0221111,144.188966 76.1766092,141.892927 C78.4441899,137.128914 81.5553449,132.761348 85.3775198,128.976315 C89.0625189,125.427613 93.2746073,122.399301 97.8826836,119.985634 C99.0301412,119.366276 100.15635,118.816845 101.303807,118.297384 L103.024994,117.54816 L103.290609,117.438274 L103.896212,117.188533 L104.246824,117.048678 C104.425189,116.965951 104.60986,116.89583 104.799303,116.838896 L105.266786,116.659082 L105.383657,116.659082 L105.511152,116.579165 C105.744894,116.43931 105.978635,116.289465 106.212376,116.1596 C106.725676,115.816444 107.269555,115.515636 107.837941,115.260532 L108.475418,114.960842 L109.729122,114.661153 L110.982825,114.361463 L111.099696,114.361463 L111.237816,114.361463 L111.673425,114.261567 C112.555267,114.051784 113.447734,113.842002 114.329577,113.652199 L115.678902,113.352509 L115.933893,113.292571 L116.879483,113.072799 C117.665704,112.902975 118.483799,112.77311 119.238146,112.663224 C120.842462,112.48341 122.191787,112.303596 123.487989,112.093814 C124.051093,112.003907 124.603573,111.884031 125.241049,111.744176 L125.411043,111.744176 C131.339575,111.744176 137.275189,111.744176 143.217886,111.744176 L145.512802,111.744176 L146.819629,111.744176 L151.069472,111.744176 L160.631619,111.744176 L201.748853,111.674249 L202.067591,111.674249 L223.199936,111.674249 L224.166776,111.674249 L245.288497,111.674249 L262.649106,111.674249 L288.275661,111.674249 L323.177499,111.674249 L419.765811,111.674249 L502.404013,111.674249 C505.283282,111.564363 508.109427,111.504425 511.785542,111.504425 L512.550514,111.504425 Z M134.611954,201.321329 L134.633203,201.321329 C134.696951,201.650987 134.760698,201.990635 134.813821,202.320293 L134.813821,200.102592 C134.750074,200.512168 134.675701,200.921743 134.611954,201.321329 Z M578.263715,257.632961 L578.221216,257.632961 C578.387796,257.677577 578.538359,257.763897 578.656825,257.882703 L578.369961,257.233376 L578.369961,257.133479 L578.369961,257.353251 L578.263715,257.632961 Z M136.566882,261.179286 L136.598756,261.169296 C136.564728,261.19468 136.524599,261.21183 136.481885,261.219244 L136.481885,261.309151 L136.481885,261.748695 L136.481885,261.468985 C136.486495,261.367609 136.51556,261.268546 136.566882,261.179286 Z M522.333948,258.701598 L522.132173,258.951155 C522.255117,258.953296 522.376947,258.973505 522.493244,259.011049 C523.247245,258.961138 524.033105,258.961138 524.829585,258.961138 C526.114573,258.961138 527.495138,259.021031 528.928802,259.130837 C530.58548,259.280571 532.029764,259.460252 533.34661,259.689845 L533.686442,259.749739 L533.824498,259.749739 C534.727176,259.909455 535.74667,260.099119 536.713066,260.318729 C536.8145,260.31916 536.915094,260.336045 537.010418,260.368641 C538.205106,260.68209 539.378891,261.062089 540.525549,261.506622 C543.760593,262.674605 546.797754,264.278571 549.541702,266.268176 C550.263844,266.827185 550.985985,267.436104 551.750606,268.124883 L551.846184,268.204741 L551.899282,268.264635 C552.833321,269.143696 553.699268,270.084432 554.490497,271.079641 C554.620626,271.161097 554.735465,271.262296 554.830328,271.37911 C554.89489,271.416696 554.95536,271.460162 555.010864,271.50888 C555.106441,271.628668 555.212639,271.758437 555.308216,271.898189 L555.414414,272.027959 L555.414414,272.107818 L555.733006,272.537056 C556.009119,272.916383 556.274612,273.305693 556.540105,273.695002 C557.100819,274.520622 557.607951,275.377332 558.058727,276.260452 C558.712515,277.500856 559.293922,278.773821 559.800363,280.073688 C560.065856,280.502926 560.32073,280.932165 560.586223,281.411315 L560.586223,281.660872 L560.586223,281.790642 L560.586223,281.990288 L560.649942,282.199916 C561.271238,284.124494 561.739792,286.089743 562.051746,288.079487 C562.126084,288.558637 562.189803,288.997858 562.253521,289.427096 C562.189803,289.636724 562.189803,289.846352 562.189803,290.016051 C562.030507,291.104121 561.849971,292.40182 561.722535,293.759411 L561.722535,293.92911 L561.722535,294.05888 L561.722535,294.178668 C561.626957,294.737676 561.552619,295.296685 561.49952,295.88564 L561.403943,296.195091 L561.403943,296.304896 L561.11721,297.303125 C560.883576,298.121673 560.618082,299.119903 560.448167,300.118132 L560.352589,300.347725 L560.235772,300.607264 L560.118955,300.846839 L559.736645,301.67537 L559.269376,302.254343 C559.046362,302.553812 558.812728,302.843298 558.579094,303.132785 C558.34546,303.422271 558.079966,303.791616 557.910051,304.041173 C557.740135,304.290731 557.570219,304.540288 557.379064,304.779863 L557.241008,304.93958 L556.964895,305.278978 C556.720641,305.5485 556.476387,305.828004 556.221513,306.097526 L555.679907,306.696463 L555.063963,307.345312 C554.699729,307.699237 554.365931,308.079757 554.065708,308.483294 C553.942557,308.664158 553.852797,308.863278 553.800214,309.072249 L553.481622,309.441594 L552.016099,310.789203 C551.368296,311.55784 550.752351,312.226654 550.125787,312.845556 L549.424885,313.534334 L549.159391,313.853767 C549.018908,314.004172 548.870022,314.147453 548.713363,314.283006 L548.532827,314.452705 L548.086799,314.861979 L547.927503,315.021696 L547.598291,315.341129 C545.792936,317.137942 543.530933,319.383958 541.226452,321.500204 C540.132619,322.498433 538.996308,323.496663 537.72194,324.494892 L520.67727,340.296862 L500.945808,358.594405 L481.352402,376.762179 L466.028129,390.966982 L465.613959,391.356291 L465.114832,391.815477 C440.487673,414.68491 418.271194,435.288363 396.086573,455.782011 L393.123668,458.527141 L392.985612,458.646929 L392.879414,458.756734 C381.027793,469.657398 366.404422,483.233317 352.354517,496.070546 L338.007259,509.167314 L335.044354,511.872516 C326.028201,520.057996 316.789034,528.493034 307.698543,536.828249 C300.151454,543.75596 292.586665,550.673689 285.004176,557.581436 C278.812872,563.221432 272.536611,568.851445 266.462124,574.301777 L266.377166,574.371653 L263.276204,577.156713 L254.907855,584.653415 L245.573111,593.008594 C236.029512,601.826287 226.500072,610.647306 216.984792,619.471653 C216.929936,619.527502 216.853247,619.55994 216.772398,619.561494 C216.688113,619.561494 216.607511,619.529024 216.549383,619.471653 C216.520419,619.429047 216.520419,619.374507 216.549383,619.331901 C215.975918,619.771122 215.402452,620.200361 214.807747,620.619617 L214.266141,621.008926 L214.096225,621.128714 C212.991773,621.917315 211.749264,622.815722 210.464277,623.554411 C210.071347,623.784004 209.657177,624.003614 209.253627,624.213243 C209.062472,624.313066 208.860697,624.412888 208.648302,624.502729 L208.36157,624.622517 C208.123677,624.726946 207.878924,624.81697 207.628808,624.892039 C207.353664,624.974606 207.067853,625.02162 206.77923,625.031791 C206.36506,625.211472 205.929651,625.391153 205.504862,625.55087 L205.218129,625.660675 L205.101312,625.660675 L204.464128,625.890268 L204.251733,625.980108 C203.58269,626.269595 202.903027,626.50917 202.255224,626.738763 C201.719577,626.945315 201.165071,627.105691 200.598546,627.217913 L200.40739,627.217913 C200.137398,627.269849 199.864335,627.306516 199.589671,627.327718 L199.324178,627.327718 C197.06531,628.100131 194.709247,628.593392 192.315155,628.795115 C191.571773,628.884956 190.817772,628.884956 190.063771,628.884956 C189.490306,628.884956 188.91684,628.835044 188.343375,628.835044 L188.12036,628.835044 C187.837399,628.850268 187.553743,628.850268 187.270782,628.835044 C186.913923,628.800295 186.559387,628.746974 186.208809,628.675328 C183.91522,628.442914 181.671152,627.891181 179.550237,627.038232 L178.944912,626.788674 C177.389663,626.080895 175.922326,625.213835 174.569582,624.20326 L174.367807,624.063508 L173.964258,623.764039 C173.519358,623.722351 173.088775,623.593107 172.700509,623.384712 C172.477495,623.224996 172.28634,623.085243 172.052706,622.89558 C171.782187,622.674725 171.526804,622.438004 171.288085,622.186837 L170.937634,621.837457 C170.757098,621.657776 170.555324,621.45813 170.353549,621.218555 L170.247351,621.118732 L168.059687,619.062379 L164.236583,615.428825 L164.024188,615.219196 C163.848068,615.151577 163.677663,615.071489 163.514441,614.979621 C162.74015,614.510843 162.027261,613.958012 161.390495,613.332543 L161.040044,613.023092 L158.916097,611.106492 C157.450574,609.73559 155.988591,608.384653 154.530148,607.053681 L150.282255,603.060763 L146.034362,599.067846 C141.552835,594.895248 137.074848,590.712667 132.600401,586.520104 L128.352508,582.527187 C121.039053,575.672679 113.750377,568.851445 106.48648,562.063486 L105.424507,561.065256 L105.042196,560.715876 L104.341294,560.067027 C95.8136493,552.141086 82.9319143,540.172317 71.1440117,529.04206 C66.3226533,524.48348 61.5048349,519.924899 56.6905563,515.366318 L53.4090591,512.261825 L46.7611069,505.962998 L43.4689899,502.848523 L43.3627926,502.758682 L39.4016325,499.025305 L38.0847858,497.777518 L36.3006708,496.100493 L35.1325002,495.002441 L29.4403239,489.651931 L28.1340968,488.424109 L27.847364,488.154587 L27.6349694,487.944959 L27.3588564,487.695402 L27.2632788,487.605561 C26.1375872,486.537456 24.5871063,485.080041 23.1746819,483.68252 L22.1870469,482.684291 L22.0596101,482.554521 C21.6879194,482.175194 21.3056091,481.795867 20.9232987,481.426522 C20.7427633,481.236858 20.5516081,481.067159 20.3604529,480.887478 C19.9250439,480.538098 19.606452,480.218664 19.2984797,479.889249 C19.0822646,479.799256 18.8845614,479.674238 18.7143945,479.519904 C18.5565491,479.388997 18.4236603,479.2337 18.3214644,479.060718 C18.2258868,478.940931 18.1409289,478.811161 18.0134922,478.63148 L17.822337,478.341993 L17.6842805,478.142347 L17.6099423,478.072471 C17.2278627,477.788387 16.9404013,477.407327 16.7816032,476.974419 L16.473631,476.625039 C16.155039,476.265676 15.8470668,475.906314 15.5497143,475.526987 L15.3479394,475.267447 C15.1992632,475.067801 15.008108,474.818244 14.9019107,474.658527 C14.7957133,474.49881 14.689516,474.339094 14.5939384,474.179377 C14.4514109,473.934931 14.3272121,473.68143 14.2222478,473.420723 L14.0098532,473.131236 C11.6173667,470.593149 9.48403369,467.849256 7.63801392,464.935774 C3.55565095,458.407205 1.02001299,451.127502 0.204201475,443.593631 C-0.196412113,439.67184 -0.00693297427,435.716546 0.767047274,431.844472 C1.52738043,428.122809 2.85056756,424.522616 4.69634814,421.153436 C5.57626189,419.562648 6.57340736,418.031625 7.68049285,416.571564 C8.68073223,415.213295 9.78078725,413.922431 10.9726098,412.708416 C12.1514001,411.480594 13.0965562,410.572205 14.1585294,409.713728 C14.3180602,409.421824 14.5259727,409.155632 14.7744739,408.925127 C15.0612066,408.605694 15.3691789,408.316207 15.6983906,408.006756 L15.8683063,407.837057 L17.4187872,406.050227 L19.0542259,404.522936 L20.7109041,402.965698 C35.9077407,388.78086 51.6886625,374.076942 68.9775863,358.045379 L85.6718052,342.532896 L118.592975,311.957132 C126.734769,304.390554 134.894263,296.833958 143.071457,289.287344 L147.754759,284.955029 L155.560262,277.747813 C157.62049,275.857832 159.684258,273.947887 161.751566,272.017977 L164.937485,269.123112 L165.649007,268.464281 C166.360299,267.760817 167.111876,267.094342 167.900391,266.467822 C168.272569,266.093643 168.772195,265.853528 169.312815,265.789026 C169.588397,265.645068 169.871997,265.515111 170.162393,265.399717 C170.215854,265.008118 170.458903,264.661744 170.820817,264.461381 C171.405287,264.133515 172.020215,263.8562 172.658031,263.632851 L172.987242,263.503081 C173.656285,263.233559 174.314709,262.984002 174.994372,262.744427 L175.089949,262.744427 L175.196146,262.744427 L175.45102,262.644604 C175.558009,262.603797 175.668042,262.570433 175.780232,262.544781 L175.886429,262.544781 C176.757247,262.245312 177.574966,261.995755 178.382066,261.766162 L178.477644,261.766162 C180.173225,261.300537 181.901379,260.946967 183.649453,260.708039 L183.77689,260.658127 C184.658328,260.518375 185.561005,260.418552 186.622978,260.348676 C187.34512,260.348676 188.046022,260.348676 188.746925,260.348676 L189.299151,260.348676 C189.872616,260.348676 190.467321,260.428535 191.136364,260.428535 L191.369998,260.428535 L191.677971,260.428535 C192.390392,260.474009 193.099507,260.557328 193.801917,260.678092 L194.205467,260.737986 C195.001947,260.847791 195.777187,260.997525 196.499329,261.14726 C196.622384,261.155849 196.743744,261.179335 196.8604,261.217136 C198.318648,261.547442 199.740812,262.005296 201.108293,262.58471 L201.246349,262.58471 L201.331307,262.58471 C201.438535,262.617663 201.541764,262.661161 201.639279,262.71448 C202.223365,262.944073 202.80745,263.19363 203.370296,263.453169 C203.532657,263.482877 203.685391,263.547824 203.816324,263.642833 C204.483235,263.957651 205.128738,264.311037 205.749116,264.700956 C206.227004,264.990443 206.704892,265.279929 207.17216,265.579398 C208.36157,266.32807 209.561599,267.166583 210.751009,268.055007 C211.941224,268.940903 213.075892,269.89081 214.149324,270.89996 C215.181328,271.903538 216.149408,272.963505 217.048511,274.074329 C219.251834,276.769473 220.927537,279.81155 221.997306,283.058393 C223.154408,286.462673 223.5733,290.050536 223.229195,293.609677 C223.07157,295.412904 222.71568,297.195938 222.167221,298.930239 C221.583111,300.777377 220.732717,302.540651 219.639725,304.170943 C219.104298,304.973594 218.496755,305.731689 217.823751,306.436924 C217.843505,307.124112 217.567882,307.789801 217.05913,308.283648 C215.444931,309.830903 213.798873,311.368176 212.120955,312.915432 L211.696166,313.314724 C210.708531,314.223112 209.731515,315.131501 208.7545,316.059854 L205.56858,319.054542 L203.98624,320.551886 L201.60742,322.777937 L199.271079,324.984024 L197.370147,326.830748 L196.308174,327.828978 C190.53104,333.259345 184.57337,338.849429 178.63694,344.479443 C170.721699,351.972817 162.820619,359.479502 154.933698,366.999496 L152.809751,368.995955 C146.756504,374.755738 140.57582,380.645291 134.650009,386.265322 C128.724199,391.885353 122.798388,397.485419 116.819479,403.135397 L111.509613,408.126544 L107.198002,412.209301 L103.916505,415.343741 L99.551795,419.496375 C97.7464405,421.22664 95.9304663,422.953576 94.1038724,424.677186 L91.7993906,426.87329 L91.7250524,426.933184 L91.661334,427.00306 L91.5232775,427.13283 L91.3746013,427.272582 L91.0878685,427.542104 L90.8648541,427.761714 C90.4610137,428.177283 90.0319698,428.570575 89.5798666,428.939625 L88.6878091,429.74819 L88.4966539,429.917889 L88.3692171,430.037677 C88.1249633,430.26727 87.7426529,430.636615 87.3922017,431.035906 L86.4895245,432.034136 L86.2771299,432.293675 C85.3294964,433.486533 84.5145886,434.767649 83.8452112,436.116893 C83.6752955,436.566097 83.4947601,437.0153 83.3248444,437.484468 L83.1336892,437.963618 L83.0593511,438.153281 C82.8363367,438.742237 82.5920829,439.361139 82.4115474,440.009988 L82.231012,440.62889 L82.231012,440.708748 C82.231012,441.427473 82.231012,442.156181 82.231012,442.89487 C82.2598348,444.276412 82.3626223,445.655713 82.5389842,447.02754 C82.7197374,448.289954 83.014617,449.535593 83.420422,450.750935 L83.6434363,451.37982 L83.6434363,451.46966 L83.855831,451.839005 C84.1000848,452.298191 84.3549584,452.757376 84.6098319,453.216562 L84.7478885,453.466119 C85.0771002,454.065056 85.4063118,454.654012 85.7249038,455.252949 L86.2027918,456.17132 L86.4682851,456.670435 C90.078994,460.077724 93.7003226,463.478359 97.332271,466.872339 L107.346678,476.205783 L108.982117,477.713109 L110.320203,479.040754 C114.667214,483.08691 119.003604,487.129739 123.329375,491.16924 L131.092399,498.456314 L135.064179,502.179709 L139.758101,506.581901 L149.814987,516.035132 L168.749969,533.773667 L172.073945,536.87816 L172.190762,536.987965 L172.254481,537.047859 L175.4404,540.042547 L175.535978,540.122405 L187.918585,551.72183 L188.109741,551.891529 L192.10276,555.664836 L192.421352,555.355385 L193.217832,554.626677 L197.465725,550.63376 L201.713617,546.640843 L214.191803,535.121277 L219.151218,530.519439 L233.084306,517.542458 L238.394172,512.551312 L242.270374,508.957686 L254.111375,497.977164 C281.481965,472.489042 308.895033,447.04085 336.350581,421.632586 L342.72242,415.64321 C371.926683,388.544612 401.130946,361.455996 430.335209,334.377362 L451.011828,315.201377 L472.017658,295.656047 L472.506165,295.216826 L473.037152,294.717712 C478.824906,289.35722 484.517082,284.096552 490.442893,278.64622 L498.397072,271.37911 L499.459045,270.380881 C500.542258,269.382652 501.678569,268.384422 502.740543,267.386193 L503.473304,266.727362 L504.630855,265.729132 L504.800771,265.58938 C504.949447,265.449628 505.098123,265.319858 505.246799,265.200071 L505.491053,265.000425 C505.692828,264.840708 505.883983,264.671009 506.064519,264.50131 L506.170716,264.41147 L506.627365,264.012178 C506.773399,263.885161 506.94244,263.783739 507.126492,263.712709 C507.328267,263.562975 507.530042,263.41324 507.753056,263.273488 L507.933592,263.143718 L508.050409,263.073842 L508.485818,262.784356 L508.570776,262.734444 L508.666353,262.674551 C509.112382,262.355117 509.664608,262.035684 510.174355,261.726233 C510.426054,261.578943 510.688683,261.448839 510.960215,261.336923 C511.113422,261.258177 511.273256,261.191404 511.438103,261.137277 L511.618639,261.057419 C512.064667,260.877738 512.531936,260.737986 512.977964,260.598234 L513.094781,260.598234 L513.349655,260.518375 C513.806303,260.388606 514.252332,260.248853 514.687741,260.079154 C515.066375,259.939091 515.462524,259.84516 515.866531,259.79965 C516.227602,259.659898 516.578054,259.540111 516.928505,259.420323 C517.405576,259.252606 517.895488,259.119127 518.394028,259.021031 C518.835861,258.947052 519.283367,258.906991 519.732114,258.901244 L520.27372,258.901244 C520.804707,258.851332 521.325074,258.791439 521.813581,258.791439 C521.888482,258.747728 521.971266,258.717279 522.057835,258.701598 C522.149171,258.686488 522.242612,258.686488 522.333948,258.701598 Z M184.626469,263.383293 L184.626469,263.433205 L184.860103,263.433205 C184.954028,263.409063 185.049942,263.392367 185.146835,263.383293 L184.796384,263.383293 L184.626469,263.383293 Z M197.805556,554.347173 L198.156007,554.02774 L197.837415,554.317226 L197.805556,554.347173 Z" id="Combined-Shape"></path>
            <path d="M360.74083,7.89511696 L360.829846,7.94500987 C361.214831,7.85389134 361.611152,7.80694973 362.009314,7.80530973 C362.792026,7.80958359 363.559639,7.99888929 364.234726,8.3541317 C365.253079,8.86358551 365.993322,9.72585509 366.282105,10.7390126 C366.382248,11.3177703 366.504646,11.9164852 366.504646,12.5052214 C366.778778,13.2744131 366.935973,14.0732477 366.971983,14.8801238 C366.971983,15.2193955 366.971983,15.5486887 366.971983,15.8779819 C367.027618,16.017682 367.027618,16.1573821 367.027618,16.2970823 C367.231774,17.7933261 367.324705,19.3000928 367.305794,20.8074009 C367.305794,22.7532243 367.305794,24.6591333 367.305794,26.6548495 C367.305794,30.9456394 367.305794,35.2863222 367.305794,39.627005 C367.305794,44.6628622 367.305794,49.6953933 367.305794,54.7245982 L367.305794,61.9091766 C367.294667,64.0346144 367.394811,66.1899879 367.216778,68.3054471 C367.190576,69.4812295 366.719773,70.6141565 365.881531,71.5185502 L365.881531,71.977565 C365.898391,73.7096528 364.61087,75.2341684 362.747113,75.6889364 C360.883356,76.1437044 358.912005,75.4143734 357.947938,73.9134097 C357.559525,73.3279196 357.355694,72.6588303 357.358204,71.977565 L357.358204,71.5285288 C356.547436,70.6084756 356.090698,69.4777101 356.056338,68.3054471 C356.056338,67.2676747 356.056338,66.1800093 356.056338,65.1821512 C356.056338,63.8849357 356.056338,62.5877201 356.056338,61.3004832 C356.111973,58.9156023 356.111973,56.5307214 356.111973,54.1458405 C356.171318,49.0966784 356.230662,44.0475164 356.290006,38.9983543 C356.334514,34.6576716 356.334514,30.3369459 356.423531,26.0261989 C356.468039,24.0803756 356.468039,22.1844451 356.534802,20.1887289 C356.545126,18.8099308 356.656638,17.4332371 356.868613,16.0675749 L356.935376,15.5985816 C356.991011,15.2992242 356.991011,14.9898881 356.991011,14.7005093 C356.999614,14.1505442 357.06668,13.602568 357.191298,13.064022 C357.269293,12.8221308 357.365961,12.5853994 357.480602,12.3555427 L357.547364,11.6969564 C357.556954,11.4250598 357.594199,11.1545157 357.658634,10.8886913 L357.658634,10.6891197 C358.068127,9.3372733 359.237892,8.27688381 360.74083,7.89511696 Z M424.72009,38.8816296 L424.702395,38.9941021 L424.637971,39.4607015 C424.478398,40.0384561 424.197471,40.5815484 423.811185,41.0590526 L423.628648,41.3072437 L423.370949,41.6944219 C423.177674,41.972396 422.9844,42.2602978 422.780388,42.5382719 L422.114664,43.5310366 L421.685165,44.1465506 C421.596028,44.3226751 421.491905,44.4919771 421.373779,44.6528606 L421.320091,44.7422094 L421.159029,44.980473 C420.826167,45.5364212 420.450356,46.0824417 420.085282,46.6185346 L419.956432,46.8071599 L419.687995,47.1744829 C418.034424,49.5273351 416.745927,51.3540221 415.393006,53.2204196 L413.67501,55.5831995 C411.420141,58.7004806 409.154534,61.8177616 406.878189,64.9350426 C405.38568,66.9900655 403.882434,69.055016 402.36845,71.1100388 L401.896001,71.7652635 L399.200896,75.458348 L399.125733,75.5675521 L398.696234,76.1632109 C398.123901,77.0232841 397.473746,77.8369546 396.752752,78.5954843 C396.290425,79.0478674 395.715334,79.3887121 395.077706,79.588249 C394.427556,80.0399833 393.636106,80.2839026 392.822836,80.2831843 C392.790519,80.2808581 392.758282,80.2782099 392.726129,80.2752424 C390.50436,80.3988958 388.415821,79.0687791 387.796694,76.9914024 C387.425623,75.8269862 387.599998,74.5707085 388.276796,73.532526 C388.810242,72.6976247 389.439709,71.9024807 390.005162,71.0973974 C390.82667,69.9643172 391.637508,68.8113584 392.459016,67.6782782 C394.500338,64.8488907 396.555885,62.0228164 398.625657,59.2000552 C399.724557,57.639585 400.887471,56.1685686 401.954364,54.657795 C405.809403,49.3303301 409.657331,43.992926 413.498146,38.6455825 C417.63769,32.900667 421.755897,27.1458122 425.91678,21.4207754 C427.858525,18.8067394 429.778932,16.1330677 431.731346,13.4693353 C432.702219,12.1573476 433.673092,10.8155421 434.665302,9.49361521 C435.134735,8.8674393 435.593499,8.23132409 436.073601,7.61508748 L437.033805,6.27328197 C437.67394,5.39862355 438.346083,4.42457214 438.943543,3.64930673 C439.541003,2.87404132 440.117125,2.06895801 440.789268,1.3433891 L440.735923,1.2241175 C441.569752,0.413980944 442.732304,-0.0300682942 443.936602,0.00158358287 C444.34306,0.00188199265 444.747945,0.0486141581 445.142191,0.140733785 C446.281773,0.452407889 447.246168,1.16545723 447.830761,2.12859381 C448.446485,3.10682654 448.611922,4.27529554 448.289525,5.36880565 C448.179464,5.7158954 448.02546,6.04955109 447.830761,6.36273567 C447.364651,7.15823728 446.844367,7.92513095 446.273098,8.658714 C445.622293,9.57312961 444.971488,10.4875452 444.299346,11.4019608 L444.043291,11.7697149 L443.989947,11.83929 C443.221784,12.962431 442.432283,14.0855719 441.653451,15.1987735 C439.597904,18.0811705 437.542357,20.9602545 435.48681,23.8360253 C431.897903,28.8512267 428.308996,33.8664282 424.72009,38.8816296 Z M312.045788,43.6079997 L312.045788,43.6382389 C313.223274,43.3348118 314.480898,43.4910518 315.534579,44.0716665 C315.870373,44.2548622 316.176681,44.4822697 316.444234,44.7470072 C317.311079,45.6726385 318.064922,46.6869545 318.691614,47.7709207 C319.718988,49.3332761 320.735661,50.9057111 321.752333,52.4680664 C323.728601,55.49198 325.701302,58.5158935 327.670436,61.5398071 L330.463609,65.8035252 C330.538522,65.9244817 330.624136,66.0454383 330.709751,66.1663948 C331.779932,67.7589893 332.925026,69.2306272 333.995208,70.7829028 C334.648018,71.7102363 335.290127,72.6678089 335.996447,73.5649033 C336.68629,74.4286432 337.325775,75.3270628 337.912071,76.2561863 C338.315825,76.9040986 338.550562,77.63301 338.596987,78.3830055 C339.156256,79.3651004 339.301485,80.5097924 339.003656,81.5883539 L338.950147,81.7093104 C338.845741,82.0441073 338.698397,82.3656695 338.511373,82.666883 C337.719568,83.9586552 336.253054,84.7512474 334.669422,84.7433037 C333.835681,84.7457416 333.016068,84.5405788 332.293619,84.1486007 C331.723115,83.8286613 331.233694,83.3952111 330.859576,82.878557 C330.101208,82.4597653 329.467918,81.8667558 329.018864,81.1549263 C328.34465,80.1469551 327.809559,79.1389839 327.22096,78.1310127 C325.687033,75.4498094 324.106732,72.7921254 322.480056,70.1579607 L322.38374,70.0168447 L319.718988,65.9244817 L313.544042,56.4596323 C312.530937,54.9140765 311.521399,53.358441 310.515429,51.7927257 C309.852199,50.8752997 309.306201,49.8873799 308.888753,48.8494499 C308.244211,46.5833669 309.649941,44.2495118 312.045788,43.6079997 Z" id="Combined-Shape"></path>
        </g>
    </g>
</svg>